<mxfile host="65bd71144e">
    <diagram id="FZbwLxIjOMWm_S0KWGtQ" name="Page-1">
        <mxGraphModel dx="2359" dy="1069" grid="0" gridSize="10" guides="1" tooltips="1" connect="1" arrows="1" fold="1" page="1" pageScale="1" pageWidth="827" pageHeight="1169" background="#ffffff" math="0" shadow="0">
            <root>
                <mxCell id="0"/>
                <mxCell id="1" parent="0"/>
                <mxCell id="6" value="" style="line;strokeWidth=1;direction=south;html=1;perimeter=backbonePerimeter;points=[];outlineConnect=0;perimeterSpacing=0;dashed=1;fillColor=none;strokeColor=#333333;" parent="1" vertex="1">
                    <mxGeometry x="-487" y="126" width="10" height="2020" as="geometry"/>
                </mxCell>
                <mxCell id="3" value="Node 1" style="rounded=1;whiteSpace=wrap;html=1;fontColor=#000000;fillColor=none;strokeColor=#000000;strokeWidth=1;" parent="1" vertex="1">
                    <mxGeometry x="-222" y="66" width="120" height="60" as="geometry"/>
                </mxCell>
                <mxCell id="7" value="" style="line;strokeWidth=1;direction=south;html=1;perimeter=backbonePerimeter;points=[];outlineConnect=0;perimeterSpacing=0;dashed=1;fontColor=#000000;fillColor=none;strokeColor=#333333;" parent="1" vertex="1">
                    <mxGeometry x="-167" y="126" width="10" height="2021" as="geometry"/>
                </mxCell>
                <mxCell id="2" value="Node 2" style="rounded=1;whiteSpace=wrap;html=1;fillColor=none;fontColor=#000000;strokeWidth=1;perimeterSpacing=2;strokeColor=#000000;" parent="1" vertex="1">
                    <mxGeometry x="-542" y="66" width="120" height="60" as="geometry"/>
                </mxCell>
                <mxCell id="30" value="" style="line;strokeWidth=1;direction=south;html=1;perimeter=backbonePerimeter;points=[];outlineConnect=0;perimeterSpacing=0;dashed=1;strokeColor=#333333;fillColor=none;" vertex="1" parent="1">
                    <mxGeometry x="153" y="135" width="10" height="2011" as="geometry"/>
                </mxCell>
                <mxCell id="90" value="" style="group;fontColor=#000000;" vertex="1" connectable="0" parent="1">
                    <mxGeometry x="-622" y="135" width="510" height="111" as="geometry"/>
                </mxCell>
                <mxCell id="80" value="" style="rounded=1;whiteSpace=wrap;html=1;fontSize=9;dashed=1;strokeWidth=1;perimeterSpacing=0;opacity=30;fontColor=#000000;fillColor=none;strokeColor=#000000;arcSize=4;" vertex="1" parent="90">
                    <mxGeometry x="90" y="1" width="420" height="110" as="geometry"/>
                </mxCell>
                <mxCell id="20" value="&lt;font style=&quot;font-size: 9px;&quot;&gt;Node 1: I am Leader&lt;/font&gt;" style="text;html=1;align=center;verticalAlign=middle;resizable=0;points=[];autosize=1;strokeColor=none;fillColor=none;dashed=1;strokeWidth=1;fontColor=#000000;" parent="90" vertex="1">
                    <mxGeometry x="250" width="110" height="30" as="geometry"/>
                </mxCell>
                <mxCell id="27" value="" style="rounded=1;whiteSpace=wrap;html=1;fontSize=9;fontColor=#000000;fillColor=#FFFFFF;strokeColor=#000000;strokeWidth=0.5;" vertex="1" parent="90">
                    <mxGeometry x="130" y="11" width="20" height="90" as="geometry"/>
                </mxCell>
                <mxCell id="22" value="&lt;font style=&quot;font-size: 9px;&quot;&gt;Node 2: I am Slave&lt;/font&gt;" style="text;html=1;align=center;verticalAlign=middle;resizable=0;points=[];autosize=1;strokeColor=none;fillColor=none;dashed=1;strokeWidth=1;fontColor=#000000;" parent="90" vertex="1">
                    <mxGeometry x="180" y="45" width="100" height="30" as="geometry"/>
                </mxCell>
                <mxCell id="79" value="" style="endArrow=classic;html=1;exitX=1.107;exitY=0.332;exitDx=0;exitDy=0;exitPerimeter=0;fontColor=#000000;strokeColor=#000000;" edge="1" parent="90">
                    <mxGeometry width="50" height="50" relative="1" as="geometry">
                        <mxPoint x="152.1400000000001" y="41" as="sourcePoint"/>
                        <mxPoint x="151.9999999999999" y="81" as="targetPoint"/>
                        <Array as="points">
                            <mxPoint x="180" y="41.16000000000008"/>
                            <mxPoint x="180" y="81"/>
                        </Array>
                    </mxGeometry>
                </mxCell>
                <mxCell id="81" value="Initiation" style="text;html=1;strokeColor=none;fillColor=none;align=center;verticalAlign=middle;whiteSpace=wrap;rounded=0;dashed=1;sketch=1;strokeWidth=1;fontSize=9;opacity=30;fontColor=#000000;" vertex="1" parent="90">
                    <mxGeometry y="41" width="90" height="30" as="geometry"/>
                </mxCell>
                <mxCell id="31" value="" style="rounded=1;whiteSpace=wrap;html=1;fontSize=9;fontColor=#000000;fillColor=#FFFFFF;strokeColor=#000000;strokeWidth=0.5;" vertex="1" parent="90">
                    <mxGeometry x="450" y="11" width="20" height="90" as="geometry"/>
                </mxCell>
                <mxCell id="19" value="" style="endArrow=classic;html=1;entryX=0.971;entryY=0.197;entryDx=0;entryDy=0;entryPerimeter=0;exitX=-0.052;exitY=0.176;exitDx=0;exitDy=0;exitPerimeter=0;fontColor=#000000;strokeColor=#000000;" parent="90" edge="1" target="27" source="31">
                    <mxGeometry width="50" height="50" relative="1" as="geometry">
                        <mxPoint x="450" y="21" as="sourcePoint"/>
                        <mxPoint x="160" y="24" as="targetPoint"/>
                    </mxGeometry>
                </mxCell>
                <mxCell id="91" value="" style="group;fontColor=#000000;" vertex="1" connectable="0" parent="1">
                    <mxGeometry x="-622" y="266" width="510" height="1982" as="geometry"/>
                </mxCell>
                <mxCell id="83" value="" style="rounded=1;whiteSpace=wrap;html=1;fontSize=9;dashed=1;strokeWidth=1;perimeterSpacing=0;opacity=30;fontColor=#000000;fillColor=none;strokeColor=#000000;arcSize=4;" vertex="1" parent="91">
                    <mxGeometry x="90" width="420" height="81" as="geometry"/>
                </mxCell>
                <mxCell id="23" value="" style="endArrow=classic;html=1;fontColor=#000000;strokeColor=#000000;" parent="91" edge="1">
                    <mxGeometry width="50" height="50" relative="1" as="geometry">
                        <mxPoint x="150" y="30.29000000000002" as="sourcePoint"/>
                        <mxPoint x="450" y="30.29000000000002" as="targetPoint"/>
                    </mxGeometry>
                </mxCell>
                <mxCell id="24" value="&lt;font style=&quot;font-size: 9px;&quot;&gt;Node 2: Alive?&lt;/font&gt;" style="text;html=1;align=center;verticalAlign=middle;resizable=0;points=[];autosize=1;strokeColor=none;fillColor=none;dashed=1;strokeWidth=1;fontColor=#000000;" parent="91" vertex="1">
                    <mxGeometry x="265" y="0.29000000000002046" width="80" height="30" as="geometry"/>
                </mxCell>
                <mxCell id="25" value="" style="endArrow=classic;html=1;fontColor=#000000;strokeColor=#000000;" parent="91" edge="1">
                    <mxGeometry width="50" height="50" relative="1" as="geometry">
                        <mxPoint x="450" y="61" as="sourcePoint"/>
                        <mxPoint x="150" y="61" as="targetPoint"/>
                    </mxGeometry>
                </mxCell>
                <mxCell id="26" value="&lt;font style=&quot;font-size: 9px;&quot;&gt;Node 1: Yes, Alive Leader&lt;/font&gt;" style="text;html=1;align=center;verticalAlign=middle;resizable=0;points=[];autosize=1;strokeColor=none;fillColor=none;dashed=1;strokeWidth=1;fontColor=#000000;" vertex="1" parent="91">
                    <mxGeometry x="240" y="31" width="130" height="30" as="geometry"/>
                </mxCell>
                <mxCell id="50" value="&lt;span style=&quot;font-family: monospace; font-size: 0px; text-align: start;&quot;&gt;%3CmxGraphModel%3E%3Croot%3E%3CmxCell%20id%3D%220%22%2F%3E%3CmxCell%20id%3D%221%22%20parent%3D%220%22%2F%3E%3CmxCell%20id%3D%222%22%20value%3D%22%22%20style%3D%22group%22%20vertex%3D%221%22%20connectable%3D%220%22%20parent%3D%221%22%3E%3CmxGeometry%20x%3D%22360%22%20y%3D%2260%22%20width%3D%22140%22%20height%3D%22990%22%20as%3D%22geometry%22%2F%3E%3C%2FmxCell%3E%3CmxCell%20id%3D%223%22%20value%3D%22Node%201%22%20style%3D%22rounded%3D1%3BwhiteSpace%3Dwrap%3Bhtml%3D1%3B%22%20vertex%3D%221%22%20parent%3D%222%22%3E%3CmxGeometry%20width%3D%22120%22%20height%3D%2260%22%20as%3D%22geometry%22%2F%3E%3C%2FmxCell%3E%3CmxCell%20id%3D%224%22%20value%3D%22%22%20style%3D%22line%3BstrokeWidth%3D1%3Bdirection%3Dsouth%3Bhtml%3D1%3Bperimeter%3DbackbonePerimeter%3Bpoints%3D%5B%5D%3BoutlineConnect%3D0%3BperimeterSpacing%3D0%3Bdashed%3D1%3B%22%20vertex%3D%221%22%20parent%3D%222%22%3E%3CmxGeometry%20x%3D%2255%22%20y%3D%2260%22%20width%3D%2210%22%20height%3D%22930%22%20as%3D%22geometry%22%2F%3E%3C%2FmxCell%3E%3CmxCell%20id%3D%225%22%20value%3D%22%22%20style%3D%22group%22%20vertex%3D%221%22%20connectable%3D%220%22%20parent%3D%222%22%3E%3CmxGeometry%20width%3D%22130%22%20height%3D%22990%22%20as%3D%22geometry%22%2F%3E%3C%2FmxCell%3E%3CmxCell%20id%3D%226%22%20value%3D%22Node%201%22%20style%3D%22rounded%3D1%3BwhiteSpace%3Dwrap%3Bhtml%3D1%3B%22%20vertex%3D%221%22%20parent%3D%225%22%3E%3CmxGeometry%20width%3D%22120%22%20height%3D%2260%22%20as%3D%22geometry%22%2F%3E%3C%2FmxCell%3E%3CmxCell%20id%3D%227%22%20value%3D%22%22%20style%3D%22line%3BstrokeWidth%3D1%3Bdirection%3Dsouth%3Bhtml%3D1%3Bperimeter%3DbackbonePerimeter%3Bpoints%3D%5B%5D%3BoutlineConnect%3D0%3BperimeterSpacing%3D0%3Bdashed%3D1%3B%22%20vertex%3D%221%22%20parent%3D%225%22%3E%3CmxGeometry%20x%3D%2255%22%20y%3D%2260%22%20width%3D%2210%22%20height%3D%22930%22%20as%3D%22geometry%22%2F%3E%3C%2FmxCell%3E%3CmxCell%20id%3D%228%22%20value%3D%22%22%20style%3D%22rounded%3D1%3BwhiteSpace%3Dwrap%3Bhtml%3D1%3BfontSize%3D9%3B%22%20vertex%3D%221%22%20parent%3D%225%22%3E%3CmxGeometry%20x%3D%2250%22%20y%3D%2280%22%20width%3D%2220%22%20height%3D%22120%22%20as%3D%22geometry%22%2F%3E%3C%2FmxCell%3E%3CmxCell%20id%3D%229%22%20value%3D%22%22%20style%3D%22rounded%3D1%3BwhiteSpace%3Dwrap%3Bhtml%3D1%3BfontSize%3D9%3B%22%20vertex%3D%221%22%20parent%3D%225%22%3E%3CmxGeometry%20x%3D%2250%22%20y%3D%22210%22%20width%3D%2220%22%20height%3D%2260%22%20as%3D%22geometry%22%2F%3E%3C%2FmxCell%3E%3C%2Froot%3E%3C%2FmxGraphModel%3E&lt;/span&gt;" style="rounded=1;whiteSpace=wrap;html=1;fontSize=9;fontColor=#000000;fillColor=#FFFFFF;strokeColor=#000000;strokeWidth=0.5;" vertex="1" parent="91">
                    <mxGeometry x="130" y="11" width="20" height="60" as="geometry"/>
                </mxCell>
                <mxCell id="41" value="&lt;span style=&quot;font-family: monospace; font-size: 0px; text-align: start;&quot;&gt;%3CmxGraphModel%3E%3Croot%3E%3CmxCell%20id%3D%220%22%2F%3E%3CmxCell%20id%3D%221%22%20parent%3D%220%22%2F%3E%3CmxCell%20id%3D%222%22%20value%3D%22%22%20style%3D%22group%22%20vertex%3D%221%22%20connectable%3D%220%22%20parent%3D%221%22%3E%3CmxGeometry%20x%3D%22360%22%20y%3D%2260%22%20width%3D%22140%22%20height%3D%22990%22%20as%3D%22geometry%22%2F%3E%3C%2FmxCell%3E%3CmxCell%20id%3D%223%22%20value%3D%22Node%201%22%20style%3D%22rounded%3D1%3BwhiteSpace%3Dwrap%3Bhtml%3D1%3B%22%20vertex%3D%221%22%20parent%3D%222%22%3E%3CmxGeometry%20width%3D%22120%22%20height%3D%2260%22%20as%3D%22geometry%22%2F%3E%3C%2FmxCell%3E%3CmxCell%20id%3D%224%22%20value%3D%22%22%20style%3D%22line%3BstrokeWidth%3D1%3Bdirection%3Dsouth%3Bhtml%3D1%3Bperimeter%3DbackbonePerimeter%3Bpoints%3D%5B%5D%3BoutlineConnect%3D0%3BperimeterSpacing%3D0%3Bdashed%3D1%3B%22%20vertex%3D%221%22%20parent%3D%222%22%3E%3CmxGeometry%20x%3D%2255%22%20y%3D%2260%22%20width%3D%2210%22%20height%3D%22930%22%20as%3D%22geometry%22%2F%3E%3C%2FmxCell%3E%3CmxCell%20id%3D%225%22%20value%3D%22%22%20style%3D%22group%22%20vertex%3D%221%22%20connectable%3D%220%22%20parent%3D%222%22%3E%3CmxGeometry%20width%3D%22130%22%20height%3D%22990%22%20as%3D%22geometry%22%2F%3E%3C%2FmxCell%3E%3CmxCell%20id%3D%226%22%20value%3D%22Node%201%22%20style%3D%22rounded%3D1%3BwhiteSpace%3Dwrap%3Bhtml%3D1%3B%22%20vertex%3D%221%22%20parent%3D%225%22%3E%3CmxGeometry%20width%3D%22120%22%20height%3D%2260%22%20as%3D%22geometry%22%2F%3E%3C%2FmxCell%3E%3CmxCell%20id%3D%227%22%20value%3D%22%22%20style%3D%22line%3BstrokeWidth%3D1%3Bdirection%3Dsouth%3Bhtml%3D1%3Bperimeter%3DbackbonePerimeter%3Bpoints%3D%5B%5D%3BoutlineConnect%3D0%3BperimeterSpacing%3D0%3Bdashed%3D1%3B%22%20vertex%3D%221%22%20parent%3D%225%22%3E%3CmxGeometry%20x%3D%2255%22%20y%3D%2260%22%20width%3D%2210%22%20height%3D%22930%22%20as%3D%22geometry%22%2F%3E%3C%2FmxCell%3E%3CmxCell%20id%3D%228%22%20value%3D%22%22%20style%3D%22rounded%3D1%3BwhiteSpace%3Dwrap%3Bhtml%3D1%3BfontSize%3D9%3B%22%20vertex%3D%221%22%20parent%3D%225%22%3E%3CmxGeometry%20x%3D%2250%22%20y%3D%2280%22%20width%3D%2220%22%20height%3D%22120%22%20as%3D%22geometry%22%2F%3E%3C%2FmxCell%3E%3CmxCell%20id%3D%229%22%20value%3D%22%22%20style%3D%22rounded%3D1%3BwhiteSpace%3Dwrap%3Bhtml%3D1%3BfontSize%3D9%3B%22%20vertex%3D%221%22%20parent%3D%225%22%3E%3CmxGeometry%20x%3D%2250%22%20y%3D%22210%22%20width%3D%2220%22%20height%3D%2260%22%20as%3D%22geometry%22%2F%3E%3C%2FmxCell%3E%3C%2Froot%3E%3C%2FmxGraphModel%3E&lt;/span&gt;" style="rounded=1;whiteSpace=wrap;html=1;fontSize=9;fontColor=#000000;fillColor=#FFFFFF;strokeColor=#000000;strokeWidth=0.5;" vertex="1" parent="91">
                    <mxGeometry x="450" y="11" width="20" height="60" as="geometry"/>
                </mxCell>
                <mxCell id="84" value="Polling Process&lt;br&gt;(Normal)" style="text;html=1;strokeColor=none;fillColor=none;align=center;verticalAlign=middle;whiteSpace=wrap;rounded=0;dashed=1;sketch=1;strokeWidth=1;fontSize=9;opacity=30;fontColor=#000000;" vertex="1" parent="91">
                    <mxGeometry y="25.5" width="90" height="30" as="geometry"/>
                </mxCell>
                <mxCell id="92" value="" style="group;fontColor=#000000;" vertex="1" connectable="0" parent="1">
                    <mxGeometry x="-622" y="356" width="510" height="310" as="geometry"/>
                </mxCell>
                <mxCell id="87" value="" style="rounded=1;whiteSpace=wrap;html=1;fontSize=9;dashed=1;strokeWidth=1;perimeterSpacing=0;opacity=30;arcSize=4;fontColor=#000000;fillColor=none;strokeColor=#000000;" vertex="1" parent="92">
                    <mxGeometry x="90" width="420" height="310" as="geometry"/>
                </mxCell>
                <mxCell id="51" value="" style="endArrow=classic;html=1;fontColor=#000000;strokeColor=#000000;" edge="1" parent="92">
                    <mxGeometry width="50" height="50" relative="1" as="geometry">
                        <mxPoint x="150" y="29.999999999999943" as="sourcePoint"/>
                        <mxPoint x="450" y="29.999999999999943" as="targetPoint"/>
                    </mxGeometry>
                </mxCell>
                <mxCell id="52" value="&lt;font style=&quot;font-size: 9px;&quot;&gt;Node 2: Alive?&lt;/font&gt;" style="text;html=1;align=center;verticalAlign=middle;resizable=0;points=[];autosize=1;strokeColor=none;fillColor=none;dashed=1;strokeWidth=1;fontColor=#000000;" vertex="1" parent="92">
                    <mxGeometry x="265" width="80" height="30" as="geometry"/>
                </mxCell>
                <mxCell id="58" value="&lt;font style=&quot;font-size: 9px;&quot;&gt;Do not receive any data&lt;/font&gt;" style="text;html=1;align=center;verticalAlign=middle;resizable=0;points=[];autosize=1;strokeColor=none;fillColor=none;dashed=1;strokeWidth=1;fontColor=#000000;" vertex="1" parent="92">
                    <mxGeometry x="180" y="50" width="120" height="30" as="geometry"/>
                </mxCell>
                <mxCell id="60" value="&lt;font style=&quot;font-size: 9px;&quot;&gt;Node 2: Starts Election process ...&lt;/font&gt;" style="text;html=1;align=center;verticalAlign=middle;resizable=0;points=[];autosize=1;strokeColor=none;fillColor=none;dashed=1;strokeWidth=1;fontColor=#000000;" vertex="1" parent="92">
                    <mxGeometry x="150" y="90" width="160" height="30" as="geometry"/>
                </mxCell>
                <mxCell id="61" value="" style="endArrow=classic;html=1;fontColor=#000000;strokeColor=#000000;jumpSize=6;" edge="1" parent="92">
                    <mxGeometry width="50" height="50" relative="1" as="geometry">
                        <mxPoint x="150.5" y="150" as="sourcePoint"/>
                        <mxPoint x="450.5" y="150" as="targetPoint"/>
                    </mxGeometry>
                </mxCell>
                <mxCell id="62" value="&lt;font style=&quot;font-size: 9px;&quot;&gt;Node 2: Electing self as Leader&lt;/font&gt;" style="text;html=1;align=center;verticalAlign=middle;resizable=0;points=[];autosize=1;strokeColor=none;fillColor=none;dashed=1;strokeWidth=1;fontColor=#000000;" vertex="1" parent="92">
                    <mxGeometry x="233.5" y="120" width="150" height="30" as="geometry"/>
                </mxCell>
                <mxCell id="75" value="" style="endArrow=classic;html=1;fontColor=#000000;strokeColor=#000000;" edge="1" parent="92">
                    <mxGeometry width="50" height="50" relative="1" as="geometry">
                        <mxPoint x="450" y="210" as="sourcePoint"/>
                        <mxPoint x="153.5" y="209.9999999999999" as="targetPoint"/>
                    </mxGeometry>
                </mxCell>
                <mxCell id="76" value="&lt;font style=&quot;font-size: 9px;&quot;&gt;Node 1: No, I am leader&lt;/font&gt;" style="text;html=1;align=center;verticalAlign=middle;resizable=0;points=[];autosize=1;strokeColor=none;fillColor=none;dashed=1;strokeWidth=1;fontColor=#000000;" vertex="1" parent="92">
                    <mxGeometry x="248.5" y="180" width="120" height="30" as="geometry"/>
                </mxCell>
                <mxCell id="54" value="&lt;span style=&quot;font-family: monospace; font-size: 0px; text-align: start;&quot;&gt;%3CmxGraphModel%3E%3Croot%3E%3CmxCell%20id%3D%220%22%2F%3E%3CmxCell%20id%3D%221%22%20parent%3D%220%22%2F%3E%3CmxCell%20id%3D%222%22%20value%3D%22%22%20style%3D%22group%22%20vertex%3D%221%22%20connectable%3D%220%22%20parent%3D%221%22%3E%3CmxGeometry%20x%3D%22360%22%20y%3D%2260%22%20width%3D%22140%22%20height%3D%22990%22%20as%3D%22geometry%22%2F%3E%3C%2FmxCell%3E%3CmxCell%20id%3D%223%22%20value%3D%22Node%201%22%20style%3D%22rounded%3D1%3BwhiteSpace%3Dwrap%3Bhtml%3D1%3B%22%20vertex%3D%221%22%20parent%3D%222%22%3E%3CmxGeometry%20width%3D%22120%22%20height%3D%2260%22%20as%3D%22geometry%22%2F%3E%3C%2FmxCell%3E%3CmxCell%20id%3D%224%22%20value%3D%22%22%20style%3D%22line%3BstrokeWidth%3D1%3Bdirection%3Dsouth%3Bhtml%3D1%3Bperimeter%3DbackbonePerimeter%3Bpoints%3D%5B%5D%3BoutlineConnect%3D0%3BperimeterSpacing%3D0%3Bdashed%3D1%3B%22%20vertex%3D%221%22%20parent%3D%222%22%3E%3CmxGeometry%20x%3D%2255%22%20y%3D%2260%22%20width%3D%2210%22%20height%3D%22930%22%20as%3D%22geometry%22%2F%3E%3C%2FmxCell%3E%3CmxCell%20id%3D%225%22%20value%3D%22%22%20style%3D%22group%22%20vertex%3D%221%22%20connectable%3D%220%22%20parent%3D%222%22%3E%3CmxGeometry%20width%3D%22130%22%20height%3D%22990%22%20as%3D%22geometry%22%2F%3E%3C%2FmxCell%3E%3CmxCell%20id%3D%226%22%20value%3D%22Node%201%22%20style%3D%22rounded%3D1%3BwhiteSpace%3Dwrap%3Bhtml%3D1%3B%22%20vertex%3D%221%22%20parent%3D%225%22%3E%3CmxGeometry%20width%3D%22120%22%20height%3D%2260%22%20as%3D%22geometry%22%2F%3E%3C%2FmxCell%3E%3CmxCell%20id%3D%227%22%20value%3D%22%22%20style%3D%22line%3BstrokeWidth%3D1%3Bdirection%3Dsouth%3Bhtml%3D1%3Bperimeter%3DbackbonePerimeter%3Bpoints%3D%5B%5D%3BoutlineConnect%3D0%3BperimeterSpacing%3D0%3Bdashed%3D1%3B%22%20vertex%3D%221%22%20parent%3D%225%22%3E%3CmxGeometry%20x%3D%2255%22%20y%3D%2260%22%20width%3D%2210%22%20height%3D%22930%22%20as%3D%22geometry%22%2F%3E%3C%2FmxCell%3E%3CmxCell%20id%3D%228%22%20value%3D%22%22%20style%3D%22rounded%3D1%3BwhiteSpace%3Dwrap%3Bhtml%3D1%3BfontSize%3D9%3B%22%20vertex%3D%221%22%20parent%3D%225%22%3E%3CmxGeometry%20x%3D%2250%22%20y%3D%2280%22%20width%3D%2220%22%20height%3D%22120%22%20as%3D%22geometry%22%2F%3E%3C%2FmxCell%3E%3CmxCell%20id%3D%229%22%20value%3D%22%22%20style%3D%22rounded%3D1%3BwhiteSpace%3Dwrap%3Bhtml%3D1%3BfontSize%3D9%3B%22%20vertex%3D%221%22%20parent%3D%225%22%3E%3CmxGeometry%20x%3D%2250%22%20y%3D%22210%22%20width%3D%2220%22%20height%3D%2260%22%20as%3D%22geometry%22%2F%3E%3C%2FmxCell%3E%3C%2Froot%3E%3C%2FmxGraphModel%3E&lt;/span&gt;" style="rounded=1;whiteSpace=wrap;html=1;fontSize=9;fontColor=#000000;fillColor=#FFFFFF;strokeColor=#000000;strokeWidth=0.5;" vertex="1" parent="92">
                    <mxGeometry x="130" y="10" width="20" height="290" as="geometry"/>
                </mxCell>
                <mxCell id="57" value="" style="endArrow=classic;html=1;exitX=1.107;exitY=0.332;exitDx=0;exitDy=0;exitPerimeter=0;fontColor=#000000;strokeColor=#000000;" edge="1" parent="92">
                    <mxGeometry width="50" height="50" relative="1" as="geometry">
                        <mxPoint x="152.14" y="49.92000000000007" as="sourcePoint"/>
                        <mxPoint x="150" y="80" as="targetPoint"/>
                        <Array as="points">
                            <mxPoint x="180" y="50"/>
                            <mxPoint x="180" y="80"/>
                        </Array>
                    </mxGeometry>
                </mxCell>
                <mxCell id="77" value="" style="endArrow=classic;html=1;exitX=1.107;exitY=0.332;exitDx=0;exitDy=0;exitPerimeter=0;fontColor=#000000;strokeColor=#000000;" edge="1" parent="92">
                    <mxGeometry width="50" height="50" relative="1" as="geometry">
                        <mxPoint x="152.1400000000001" y="230" as="sourcePoint"/>
                        <mxPoint x="152" y="270" as="targetPoint"/>
                        <Array as="points">
                            <mxPoint x="180" y="230.16000000000008"/>
                            <mxPoint x="180" y="270"/>
                        </Array>
                    </mxGeometry>
                </mxCell>
                <mxCell id="78" value="&lt;font style=&quot;font-size: 9px;&quot;&gt;Node 2: I am Slave&lt;/font&gt;" style="text;html=1;align=center;verticalAlign=middle;resizable=0;points=[];autosize=1;strokeColor=none;fillColor=none;dashed=1;strokeWidth=1;fontColor=#000000;" vertex="1" parent="92">
                    <mxGeometry x="180" y="235.0000000000001" width="100" height="30" as="geometry"/>
                </mxCell>
                <mxCell id="53" value="&lt;span style=&quot;font-family: monospace; font-size: 0px; text-align: start;&quot;&gt;%3CmxGraphModel%3E%3Croot%3E%3CmxCell%20id%3D%220%22%2F%3E%3CmxCell%20id%3D%221%22%20parent%3D%220%22%2F%3E%3CmxCell%20id%3D%222%22%20value%3D%22%22%20style%3D%22group%22%20vertex%3D%221%22%20connectable%3D%220%22%20parent%3D%221%22%3E%3CmxGeometry%20x%3D%22360%22%20y%3D%2260%22%20width%3D%22140%22%20height%3D%22990%22%20as%3D%22geometry%22%2F%3E%3C%2FmxCell%3E%3CmxCell%20id%3D%223%22%20value%3D%22Node%201%22%20style%3D%22rounded%3D1%3BwhiteSpace%3Dwrap%3Bhtml%3D1%3B%22%20vertex%3D%221%22%20parent%3D%222%22%3E%3CmxGeometry%20width%3D%22120%22%20height%3D%2260%22%20as%3D%22geometry%22%2F%3E%3C%2FmxCell%3E%3CmxCell%20id%3D%224%22%20value%3D%22%22%20style%3D%22line%3BstrokeWidth%3D1%3Bdirection%3Dsouth%3Bhtml%3D1%3Bperimeter%3DbackbonePerimeter%3Bpoints%3D%5B%5D%3BoutlineConnect%3D0%3BperimeterSpacing%3D0%3Bdashed%3D1%3B%22%20vertex%3D%221%22%20parent%3D%222%22%3E%3CmxGeometry%20x%3D%2255%22%20y%3D%2260%22%20width%3D%2210%22%20height%3D%22930%22%20as%3D%22geometry%22%2F%3E%3C%2FmxCell%3E%3CmxCell%20id%3D%225%22%20value%3D%22%22%20style%3D%22group%22%20vertex%3D%221%22%20connectable%3D%220%22%20parent%3D%222%22%3E%3CmxGeometry%20width%3D%22130%22%20height%3D%22990%22%20as%3D%22geometry%22%2F%3E%3C%2FmxCell%3E%3CmxCell%20id%3D%226%22%20value%3D%22Node%201%22%20style%3D%22rounded%3D1%3BwhiteSpace%3Dwrap%3Bhtml%3D1%3B%22%20vertex%3D%221%22%20parent%3D%225%22%3E%3CmxGeometry%20width%3D%22120%22%20height%3D%2260%22%20as%3D%22geometry%22%2F%3E%3C%2FmxCell%3E%3CmxCell%20id%3D%227%22%20value%3D%22%22%20style%3D%22line%3BstrokeWidth%3D1%3Bdirection%3Dsouth%3Bhtml%3D1%3Bperimeter%3DbackbonePerimeter%3Bpoints%3D%5B%5D%3BoutlineConnect%3D0%3BperimeterSpacing%3D0%3Bdashed%3D1%3B%22%20vertex%3D%221%22%20parent%3D%225%22%3E%3CmxGeometry%20x%3D%2255%22%20y%3D%2260%22%20width%3D%2210%22%20height%3D%22930%22%20as%3D%22geometry%22%2F%3E%3C%2FmxCell%3E%3CmxCell%20id%3D%228%22%20value%3D%22%22%20style%3D%22rounded%3D1%3BwhiteSpace%3Dwrap%3Bhtml%3D1%3BfontSize%3D9%3B%22%20vertex%3D%221%22%20parent%3D%225%22%3E%3CmxGeometry%20x%3D%2250%22%20y%3D%2280%22%20width%3D%2220%22%20height%3D%22120%22%20as%3D%22geometry%22%2F%3E%3C%2FmxCell%3E%3CmxCell%20id%3D%229%22%20value%3D%22%22%20style%3D%22rounded%3D1%3BwhiteSpace%3Dwrap%3Bhtml%3D1%3BfontSize%3D9%3B%22%20vertex%3D%221%22%20parent%3D%225%22%3E%3CmxGeometry%20x%3D%2250%22%20y%3D%22210%22%20width%3D%2220%22%20height%3D%2260%22%20as%3D%22geometry%22%2F%3E%3C%2FmxCell%3E%3C%2Froot%3E%3C%2FmxGraphModel%3E&lt;/span&gt;" style="rounded=1;whiteSpace=wrap;html=1;fontSize=9;fontColor=#000000;fillColor=#FFFFFF;strokeColor=#000000;strokeWidth=0.5;" vertex="1" parent="92">
                    <mxGeometry x="450" y="10" width="20" height="40" as="geometry"/>
                </mxCell>
                <mxCell id="72" value="&lt;span style=&quot;font-family: monospace; font-size: 0px; text-align: start;&quot;&gt;%3CmxGraphModel%3E%3Croot%3E%3CmxCell%20id%3D%220%22%2F%3E%3CmxCell%20id%3D%221%22%20parent%3D%220%22%2F%3E%3CmxCell%20id%3D%222%22%20value%3D%22%22%20style%3D%22group%22%20vertex%3D%221%22%20connectable%3D%220%22%20parent%3D%221%22%3E%3CmxGeometry%20x%3D%22360%22%20y%3D%2260%22%20width%3D%22140%22%20height%3D%22990%22%20as%3D%22geometry%22%2F%3E%3C%2FmxCell%3E%3CmxCell%20id%3D%223%22%20value%3D%22Node%201%22%20style%3D%22rounded%3D1%3BwhiteSpace%3Dwrap%3Bhtml%3D1%3B%22%20vertex%3D%221%22%20parent%3D%222%22%3E%3CmxGeometry%20width%3D%22120%22%20height%3D%2260%22%20as%3D%22geometry%22%2F%3E%3C%2FmxCell%3E%3CmxCell%20id%3D%224%22%20value%3D%22%22%20style%3D%22line%3BstrokeWidth%3D1%3Bdirection%3Dsouth%3Bhtml%3D1%3Bperimeter%3DbackbonePerimeter%3Bpoints%3D%5B%5D%3BoutlineConnect%3D0%3BperimeterSpacing%3D0%3Bdashed%3D1%3B%22%20vertex%3D%221%22%20parent%3D%222%22%3E%3CmxGeometry%20x%3D%2255%22%20y%3D%2260%22%20width%3D%2210%22%20height%3D%22930%22%20as%3D%22geometry%22%2F%3E%3C%2FmxCell%3E%3CmxCell%20id%3D%225%22%20value%3D%22%22%20style%3D%22group%22%20vertex%3D%221%22%20connectable%3D%220%22%20parent%3D%222%22%3E%3CmxGeometry%20width%3D%22130%22%20height%3D%22990%22%20as%3D%22geometry%22%2F%3E%3C%2FmxCell%3E%3CmxCell%20id%3D%226%22%20value%3D%22Node%201%22%20style%3D%22rounded%3D1%3BwhiteSpace%3Dwrap%3Bhtml%3D1%3B%22%20vertex%3D%221%22%20parent%3D%225%22%3E%3CmxGeometry%20width%3D%22120%22%20height%3D%2260%22%20as%3D%22geometry%22%2F%3E%3C%2FmxCell%3E%3CmxCell%20id%3D%227%22%20value%3D%22%22%20style%3D%22line%3BstrokeWidth%3D1%3Bdirection%3Dsouth%3Bhtml%3D1%3Bperimeter%3DbackbonePerimeter%3Bpoints%3D%5B%5D%3BoutlineConnect%3D0%3BperimeterSpacing%3D0%3Bdashed%3D1%3B%22%20vertex%3D%221%22%20parent%3D%225%22%3E%3CmxGeometry%20x%3D%2255%22%20y%3D%2260%22%20width%3D%2210%22%20height%3D%22930%22%20as%3D%22geometry%22%2F%3E%3C%2FmxCell%3E%3CmxCell%20id%3D%228%22%20value%3D%22%22%20style%3D%22rounded%3D1%3BwhiteSpace%3Dwrap%3Bhtml%3D1%3BfontSize%3D9%3B%22%20vertex%3D%221%22%20parent%3D%225%22%3E%3CmxGeometry%20x%3D%2250%22%20y%3D%2280%22%20width%3D%2220%22%20height%3D%22120%22%20as%3D%22geometry%22%2F%3E%3C%2FmxCell%3E%3CmxCell%20id%3D%229%22%20value%3D%22%22%20style%3D%22rounded%3D1%3BwhiteSpace%3Dwrap%3Bhtml%3D1%3BfontSize%3D9%3B%22%20vertex%3D%221%22%20parent%3D%225%22%3E%3CmxGeometry%20x%3D%2250%22%20y%3D%22210%22%20width%3D%2220%22%20height%3D%2260%22%20as%3D%22geometry%22%2F%3E%3C%2FmxCell%3E%3C%2Froot%3E%3C%2FmxGraphModel%3E&lt;/span&gt;" style="rounded=1;whiteSpace=wrap;html=1;fontSize=9;fontColor=#000000;fillColor=#FFFFFF;strokeColor=#000000;strokeWidth=0.5;" vertex="1" parent="92">
                    <mxGeometry x="450" y="130" width="20" height="120" as="geometry"/>
                </mxCell>
                <mxCell id="74" value="&lt;font style=&quot;font-size: 9px;&quot;&gt;Node 1: Fails&lt;br&gt;&lt;/font&gt;" style="text;html=1;align=center;verticalAlign=middle;resizable=0;points=[];autosize=1;strokeColor=none;fillColor=none;dashed=1;strokeWidth=1;fontColor=#000000;" vertex="1" parent="92">
                    <mxGeometry x="370" y="40" width="80" height="30" as="geometry"/>
                </mxCell>
                <mxCell id="73" value="&lt;font style=&quot;font-size: 9px;&quot;&gt;Node 1: Wakes up&lt;br&gt;&lt;/font&gt;" style="text;html=1;align=center;verticalAlign=middle;resizable=0;points=[];autosize=1;strokeColor=none;fillColor=none;dashed=1;strokeWidth=1;fontColor=#000000;" vertex="1" parent="92">
                    <mxGeometry x="350" y="160" width="100" height="30" as="geometry"/>
                </mxCell>
                <mxCell id="88" value="Polling Process&lt;br&gt;(Intermittent failure)" style="text;html=1;strokeColor=none;fillColor=none;align=center;verticalAlign=middle;whiteSpace=wrap;rounded=0;dashed=1;sketch=1;strokeWidth=1;fontSize=9;opacity=30;fontColor=#000000;" vertex="1" parent="92">
                    <mxGeometry y="150" width="90" height="30" as="geometry"/>
                </mxCell>
                <mxCell id="4" value="Client 1" style="rounded=1;whiteSpace=wrap;html=1;fontColor=#000000;fillColor=none;strokeColor=#000000;strokeWidth=1;" parent="1" vertex="1">
                    <mxGeometry x="98" y="66" width="120" height="69.0909090909091" as="geometry"/>
                </mxCell>
                <mxCell id="8" value="" style="line;strokeWidth=1;direction=south;html=1;perimeter=backbonePerimeter;points=[];outlineConnect=0;perimeterSpacing=0;dashed=1;fontColor=#000000;" parent="1" vertex="1">
                    <mxGeometry x="735" y="129.09" width="10" height="2100.91" as="geometry"/>
                </mxCell>
                <mxCell id="5" value="Client 2" style="rounded=1;whiteSpace=wrap;html=1;fontColor=#000000;fillColor=none;strokeColor=#000000;strokeWidth=1;" parent="1" vertex="1">
                    <mxGeometry x="418" y="66" width="120" height="60" as="geometry"/>
                </mxCell>
                <mxCell id="9" value="" style="line;strokeWidth=1;direction=south;html=1;perimeter=backbonePerimeter;points=[];outlineConnect=0;perimeterSpacing=0;dashed=1;fontColor=default;fillColor=none;strokeColor=#333333;" parent="1" vertex="1">
                    <mxGeometry x="473" y="126" width="10" height="2019" as="geometry"/>
                </mxCell>
                <mxCell id="136" value="" style="group;fontColor=#000000;" vertex="1" connectable="0" parent="1">
                    <mxGeometry x="-622" y="696" width="1130" height="350" as="geometry"/>
                </mxCell>
                <mxCell id="94" value="" style="rounded=1;whiteSpace=wrap;html=1;fontSize=9;dashed=1;strokeWidth=1;perimeterSpacing=0;opacity=30;arcSize=4;fontColor=#000000;fillColor=none;strokeColor=#000000;" vertex="1" parent="136">
                    <mxGeometry x="90" width="1040" height="350" as="geometry"/>
                </mxCell>
                <mxCell id="95" value="" style="endArrow=classic;html=1;fontColor=#000000;strokeColor=#000000;" edge="1" parent="136">
                    <mxGeometry width="50" height="50" relative="1" as="geometry">
                        <mxPoint x="150" y="30" as="sourcePoint"/>
                        <mxPoint x="450" y="30" as="targetPoint"/>
                    </mxGeometry>
                </mxCell>
                <mxCell id="96" value="&lt;font style=&quot;font-size: 9px;&quot;&gt;Node 2: Alive?&lt;/font&gt;" style="text;html=1;align=center;verticalAlign=middle;resizable=0;points=[];autosize=1;strokeColor=none;fillColor=none;dashed=1;strokeWidth=1;fontColor=#000000;" vertex="1" parent="136">
                    <mxGeometry x="265" width="80" height="30" as="geometry"/>
                </mxCell>
                <mxCell id="97" value="&lt;font style=&quot;font-size: 9px;&quot;&gt;Do not receive any data&lt;/font&gt;" style="text;html=1;align=center;verticalAlign=middle;resizable=0;points=[];autosize=1;strokeColor=none;fillColor=none;dashed=1;strokeWidth=1;fontColor=#000000;" vertex="1" parent="136">
                    <mxGeometry x="180" y="50" width="120" height="30" as="geometry"/>
                </mxCell>
                <mxCell id="98" value="&lt;font style=&quot;font-size: 9px;&quot;&gt;Node 2: Starts Election process ...&lt;/font&gt;" style="text;html=1;align=center;verticalAlign=middle;resizable=0;points=[];autosize=1;strokeColor=none;fillColor=none;dashed=1;strokeWidth=1;fontColor=#000000;" vertex="1" parent="136">
                    <mxGeometry x="150" y="90" width="160" height="30" as="geometry"/>
                </mxCell>
                <mxCell id="99" value="" style="endArrow=classic;html=1;fontColor=#000000;strokeColor=#000000;" edge="1" parent="136">
                    <mxGeometry width="50" height="50" relative="1" as="geometry">
                        <mxPoint x="150.5" y="150" as="sourcePoint"/>
                        <mxPoint x="450.5" y="150" as="targetPoint"/>
                    </mxGeometry>
                </mxCell>
                <mxCell id="100" value="&lt;span style=&quot;font-size: 9px;&quot;&gt;Node 2: Electing self as Leader&lt;/span&gt;" style="text;html=1;align=center;verticalAlign=middle;resizable=0;points=[];autosize=1;strokeColor=none;fillColor=none;dashed=1;strokeWidth=1;fontColor=#000000;" vertex="1" parent="136">
                    <mxGeometry x="233.5" y="120" width="150" height="30" as="geometry"/>
                </mxCell>
                <mxCell id="103" value="&lt;span style=&quot;font-family: monospace; font-size: 0px; text-align: start;&quot;&gt;%3CmxGraphModel%3E%3Croot%3E%3CmxCell%20id%3D%220%22%2F%3E%3CmxCell%20id%3D%221%22%20parent%3D%220%22%2F%3E%3CmxCell%20id%3D%222%22%20value%3D%22%22%20style%3D%22group%22%20vertex%3D%221%22%20connectable%3D%220%22%20parent%3D%221%22%3E%3CmxGeometry%20x%3D%22360%22%20y%3D%2260%22%20width%3D%22140%22%20height%3D%22990%22%20as%3D%22geometry%22%2F%3E%3C%2FmxCell%3E%3CmxCell%20id%3D%223%22%20value%3D%22Node%201%22%20style%3D%22rounded%3D1%3BwhiteSpace%3Dwrap%3Bhtml%3D1%3B%22%20vertex%3D%221%22%20parent%3D%222%22%3E%3CmxGeometry%20width%3D%22120%22%20height%3D%2260%22%20as%3D%22geometry%22%2F%3E%3C%2FmxCell%3E%3CmxCell%20id%3D%224%22%20value%3D%22%22%20style%3D%22line%3BstrokeWidth%3D1%3Bdirection%3Dsouth%3Bhtml%3D1%3Bperimeter%3DbackbonePerimeter%3Bpoints%3D%5B%5D%3BoutlineConnect%3D0%3BperimeterSpacing%3D0%3Bdashed%3D1%3B%22%20vertex%3D%221%22%20parent%3D%222%22%3E%3CmxGeometry%20x%3D%2255%22%20y%3D%2260%22%20width%3D%2210%22%20height%3D%22930%22%20as%3D%22geometry%22%2F%3E%3C%2FmxCell%3E%3CmxCell%20id%3D%225%22%20value%3D%22%22%20style%3D%22group%22%20vertex%3D%221%22%20connectable%3D%220%22%20parent%3D%222%22%3E%3CmxGeometry%20width%3D%22130%22%20height%3D%22990%22%20as%3D%22geometry%22%2F%3E%3C%2FmxCell%3E%3CmxCell%20id%3D%226%22%20value%3D%22Node%201%22%20style%3D%22rounded%3D1%3BwhiteSpace%3Dwrap%3Bhtml%3D1%3B%22%20vertex%3D%221%22%20parent%3D%225%22%3E%3CmxGeometry%20width%3D%22120%22%20height%3D%2260%22%20as%3D%22geometry%22%2F%3E%3C%2FmxCell%3E%3CmxCell%20id%3D%227%22%20value%3D%22%22%20style%3D%22line%3BstrokeWidth%3D1%3Bdirection%3Dsouth%3Bhtml%3D1%3Bperimeter%3DbackbonePerimeter%3Bpoints%3D%5B%5D%3BoutlineConnect%3D0%3BperimeterSpacing%3D0%3Bdashed%3D1%3B%22%20vertex%3D%221%22%20parent%3D%225%22%3E%3CmxGeometry%20x%3D%2255%22%20y%3D%2260%22%20width%3D%2210%22%20height%3D%22930%22%20as%3D%22geometry%22%2F%3E%3C%2FmxCell%3E%3CmxCell%20id%3D%228%22%20value%3D%22%22%20style%3D%22rounded%3D1%3BwhiteSpace%3Dwrap%3Bhtml%3D1%3BfontSize%3D9%3B%22%20vertex%3D%221%22%20parent%3D%225%22%3E%3CmxGeometry%20x%3D%2250%22%20y%3D%2280%22%20width%3D%2220%22%20height%3D%22120%22%20as%3D%22geometry%22%2F%3E%3C%2FmxCell%3E%3CmxCell%20id%3D%229%22%20value%3D%22%22%20style%3D%22rounded%3D1%3BwhiteSpace%3Dwrap%3Bhtml%3D1%3BfontSize%3D9%3B%22%20vertex%3D%221%22%20parent%3D%225%22%3E%3CmxGeometry%20x%3D%2250%22%20y%3D%22210%22%20width%3D%2220%22%20height%3D%2260%22%20as%3D%22geometry%22%2F%3E%3C%2FmxCell%3E%3C%2Froot%3E%3C%2FmxGraphModel%3E&lt;/span&gt;" style="rounded=1;whiteSpace=wrap;html=1;fontSize=9;fontColor=#000000;fillColor=#FFFFFF;strokeColor=#000000;strokeWidth=0.5;" vertex="1" parent="136">
                    <mxGeometry x="130" y="10" width="20" height="320" as="geometry"/>
                </mxCell>
                <mxCell id="104" value="" style="endArrow=classic;html=1;exitX=1.107;exitY=0.332;exitDx=0;exitDy=0;exitPerimeter=0;fontColor=#000000;strokeColor=#000000;" edge="1" parent="136">
                    <mxGeometry width="50" height="50" relative="1" as="geometry">
                        <mxPoint x="152.14" y="49.92000000000007" as="sourcePoint"/>
                        <mxPoint x="150" y="80" as="targetPoint"/>
                        <Array as="points">
                            <mxPoint x="180" y="50"/>
                            <mxPoint x="180" y="80"/>
                        </Array>
                    </mxGeometry>
                </mxCell>
                <mxCell id="105" value="" style="endArrow=classic;html=1;exitX=1.107;exitY=0.332;exitDx=0;exitDy=0;exitPerimeter=0;fontColor=#000000;strokeColor=#000000;" edge="1" parent="136">
                    <mxGeometry width="50" height="50" relative="1" as="geometry">
                        <mxPoint x="152.1400000000001" y="205" as="sourcePoint"/>
                        <mxPoint x="152" y="245" as="targetPoint"/>
                        <Array as="points">
                            <mxPoint x="180" y="205.16000000000008"/>
                            <mxPoint x="180" y="245"/>
                        </Array>
                    </mxGeometry>
                </mxCell>
                <mxCell id="106" value="&lt;font style=&quot;font-size: 9px;&quot;&gt;Node 2: I am Leader&lt;/font&gt;" style="text;html=1;align=center;verticalAlign=middle;resizable=0;points=[];autosize=1;strokeColor=none;fillColor=none;dashed=1;strokeWidth=1;fontColor=#000000;" vertex="1" parent="136">
                    <mxGeometry x="175" y="210.0000000000001" width="110" height="30" as="geometry"/>
                </mxCell>
                <mxCell id="107" value="&lt;span style=&quot;font-family: monospace; font-size: 0px; text-align: start;&quot;&gt;%3CmxGraphModel%3E%3Croot%3E%3CmxCell%20id%3D%220%22%2F%3E%3CmxCell%20id%3D%221%22%20parent%3D%220%22%2F%3E%3CmxCell%20id%3D%222%22%20value%3D%22%22%20style%3D%22group%22%20vertex%3D%221%22%20connectable%3D%220%22%20parent%3D%221%22%3E%3CmxGeometry%20x%3D%22360%22%20y%3D%2260%22%20width%3D%22140%22%20height%3D%22990%22%20as%3D%22geometry%22%2F%3E%3C%2FmxCell%3E%3CmxCell%20id%3D%223%22%20value%3D%22Node%201%22%20style%3D%22rounded%3D1%3BwhiteSpace%3Dwrap%3Bhtml%3D1%3B%22%20vertex%3D%221%22%20parent%3D%222%22%3E%3CmxGeometry%20width%3D%22120%22%20height%3D%2260%22%20as%3D%22geometry%22%2F%3E%3C%2FmxCell%3E%3CmxCell%20id%3D%224%22%20value%3D%22%22%20style%3D%22line%3BstrokeWidth%3D1%3Bdirection%3Dsouth%3Bhtml%3D1%3Bperimeter%3DbackbonePerimeter%3Bpoints%3D%5B%5D%3BoutlineConnect%3D0%3BperimeterSpacing%3D0%3Bdashed%3D1%3B%22%20vertex%3D%221%22%20parent%3D%222%22%3E%3CmxGeometry%20x%3D%2255%22%20y%3D%2260%22%20width%3D%2210%22%20height%3D%22930%22%20as%3D%22geometry%22%2F%3E%3C%2FmxCell%3E%3CmxCell%20id%3D%225%22%20value%3D%22%22%20style%3D%22group%22%20vertex%3D%221%22%20connectable%3D%220%22%20parent%3D%222%22%3E%3CmxGeometry%20width%3D%22130%22%20height%3D%22990%22%20as%3D%22geometry%22%2F%3E%3C%2FmxCell%3E%3CmxCell%20id%3D%226%22%20value%3D%22Node%201%22%20style%3D%22rounded%3D1%3BwhiteSpace%3Dwrap%3Bhtml%3D1%3B%22%20vertex%3D%221%22%20parent%3D%225%22%3E%3CmxGeometry%20width%3D%22120%22%20height%3D%2260%22%20as%3D%22geometry%22%2F%3E%3C%2FmxCell%3E%3CmxCell%20id%3D%227%22%20value%3D%22%22%20style%3D%22line%3BstrokeWidth%3D1%3Bdirection%3Dsouth%3Bhtml%3D1%3Bperimeter%3DbackbonePerimeter%3Bpoints%3D%5B%5D%3BoutlineConnect%3D0%3BperimeterSpacing%3D0%3Bdashed%3D1%3B%22%20vertex%3D%221%22%20parent%3D%225%22%3E%3CmxGeometry%20x%3D%2255%22%20y%3D%2260%22%20width%3D%2210%22%20height%3D%22930%22%20as%3D%22geometry%22%2F%3E%3C%2FmxCell%3E%3CmxCell%20id%3D%228%22%20value%3D%22%22%20style%3D%22rounded%3D1%3BwhiteSpace%3Dwrap%3Bhtml%3D1%3BfontSize%3D9%3B%22%20vertex%3D%221%22%20parent%3D%225%22%3E%3CmxGeometry%20x%3D%2250%22%20y%3D%2280%22%20width%3D%2220%22%20height%3D%22120%22%20as%3D%22geometry%22%2F%3E%3C%2FmxCell%3E%3CmxCell%20id%3D%229%22%20value%3D%22%22%20style%3D%22rounded%3D1%3BwhiteSpace%3Dwrap%3Bhtml%3D1%3BfontSize%3D9%3B%22%20vertex%3D%221%22%20parent%3D%225%22%3E%3CmxGeometry%20x%3D%2250%22%20y%3D%22210%22%20width%3D%2220%22%20height%3D%2260%22%20as%3D%22geometry%22%2F%3E%3C%2FmxCell%3E%3C%2Froot%3E%3C%2FmxGraphModel%3E&lt;/span&gt;" style="rounded=1;whiteSpace=wrap;html=1;fontSize=9;fontColor=#000000;fillColor=#FFFFFF;strokeColor=#000000;strokeWidth=0.5;" vertex="1" parent="136">
                    <mxGeometry x="450" y="10" width="20" height="40" as="geometry"/>
                </mxCell>
                <mxCell id="109" value="&lt;font style=&quot;font-size: 9px;&quot;&gt;Node 1: Fails&lt;br&gt;&lt;/font&gt;" style="text;html=1;align=center;verticalAlign=middle;resizable=0;points=[];autosize=1;strokeColor=none;fillColor=none;dashed=1;strokeWidth=1;fontColor=#000000;" vertex="1" parent="136">
                    <mxGeometry x="370" y="40" width="80" height="30" as="geometry"/>
                </mxCell>
                <mxCell id="111" value="Polling Process&lt;br&gt;(Permanent failure)" style="text;html=1;strokeColor=none;fillColor=none;align=center;verticalAlign=middle;whiteSpace=wrap;rounded=0;dashed=1;sketch=1;strokeWidth=1;fontSize=9;opacity=30;fontColor=#000000;" vertex="1" parent="136">
                    <mxGeometry y="150" width="90" height="30" as="geometry"/>
                </mxCell>
                <mxCell id="128" value="&lt;font style=&quot;font-size: 9px;&quot;&gt;After timeout&lt;/font&gt;" style="text;html=1;align=center;verticalAlign=middle;resizable=0;points=[];autosize=1;strokeColor=none;fillColor=none;dashed=1;strokeWidth=1;fontColor=#000000;" vertex="1" parent="136">
                    <mxGeometry x="150" y="160.0000000000001" width="70" height="30" as="geometry"/>
                </mxCell>
                <mxCell id="130" value="" style="endArrow=classic;html=1;fontColor=#000000;strokeColor=#000000;" edge="1" parent="136">
                    <mxGeometry width="50" height="50" relative="1" as="geometry">
                        <mxPoint x="150" y="270" as="sourcePoint"/>
                        <mxPoint x="770" y="270" as="targetPoint"/>
                    </mxGeometry>
                </mxCell>
                <mxCell id="131" value="&lt;span style=&quot;font-size: 9px;&quot;&gt;Notify Client 1 of new Leader&lt;/span&gt;" style="text;html=1;align=center;verticalAlign=middle;resizable=0;points=[];autosize=1;strokeColor=none;fillColor=none;dashed=1;strokeWidth=1;fontColor=#000000;" vertex="1" parent="136">
                    <mxGeometry x="238" y="240" width="140" height="30" as="geometry"/>
                </mxCell>
                <mxCell id="132" value="" style="endArrow=classic;html=1;fontColor=#000000;strokeColor=#000000;" edge="1" parent="136">
                    <mxGeometry width="50" height="50" relative="1" as="geometry">
                        <mxPoint x="150" y="309.9999999999998" as="sourcePoint"/>
                        <mxPoint x="1090" y="310" as="targetPoint"/>
                    </mxGeometry>
                </mxCell>
                <mxCell id="133" value="&lt;span style=&quot;font-size: 9px;&quot;&gt;Notify Client 2 of new Leader&lt;/span&gt;" style="text;html=1;align=center;verticalAlign=middle;resizable=0;points=[];autosize=1;strokeColor=none;fillColor=none;dashed=1;strokeWidth=1;fontColor=#000000;" vertex="1" parent="136">
                    <mxGeometry x="238" y="280" width="140" height="30" as="geometry"/>
                </mxCell>
                <mxCell id="134" value="&lt;span style=&quot;font-family: monospace; font-size: 0px; text-align: start;&quot;&gt;%3CmxGraphModel%3E%3Croot%3E%3CmxCell%20id%3D%220%22%2F%3E%3CmxCell%20id%3D%221%22%20parent%3D%220%22%2F%3E%3CmxCell%20id%3D%222%22%20value%3D%22%22%20style%3D%22group%22%20vertex%3D%221%22%20connectable%3D%220%22%20parent%3D%221%22%3E%3CmxGeometry%20x%3D%22360%22%20y%3D%2260%22%20width%3D%22140%22%20height%3D%22990%22%20as%3D%22geometry%22%2F%3E%3C%2FmxCell%3E%3CmxCell%20id%3D%223%22%20value%3D%22Node%201%22%20style%3D%22rounded%3D1%3BwhiteSpace%3Dwrap%3Bhtml%3D1%3B%22%20vertex%3D%221%22%20parent%3D%222%22%3E%3CmxGeometry%20width%3D%22120%22%20height%3D%2260%22%20as%3D%22geometry%22%2F%3E%3C%2FmxCell%3E%3CmxCell%20id%3D%224%22%20value%3D%22%22%20style%3D%22line%3BstrokeWidth%3D1%3Bdirection%3Dsouth%3Bhtml%3D1%3Bperimeter%3DbackbonePerimeter%3Bpoints%3D%5B%5D%3BoutlineConnect%3D0%3BperimeterSpacing%3D0%3Bdashed%3D1%3B%22%20vertex%3D%221%22%20parent%3D%222%22%3E%3CmxGeometry%20x%3D%2255%22%20y%3D%2260%22%20width%3D%2210%22%20height%3D%22930%22%20as%3D%22geometry%22%2F%3E%3C%2FmxCell%3E%3CmxCell%20id%3D%225%22%20value%3D%22%22%20style%3D%22group%22%20vertex%3D%221%22%20connectable%3D%220%22%20parent%3D%222%22%3E%3CmxGeometry%20width%3D%22130%22%20height%3D%22990%22%20as%3D%22geometry%22%2F%3E%3C%2FmxCell%3E%3CmxCell%20id%3D%226%22%20value%3D%22Node%201%22%20style%3D%22rounded%3D1%3BwhiteSpace%3Dwrap%3Bhtml%3D1%3B%22%20vertex%3D%221%22%20parent%3D%225%22%3E%3CmxGeometry%20width%3D%22120%22%20height%3D%2260%22%20as%3D%22geometry%22%2F%3E%3C%2FmxCell%3E%3CmxCell%20id%3D%227%22%20value%3D%22%22%20style%3D%22line%3BstrokeWidth%3D1%3Bdirection%3Dsouth%3Bhtml%3D1%3Bperimeter%3DbackbonePerimeter%3Bpoints%3D%5B%5D%3BoutlineConnect%3D0%3BperimeterSpacing%3D0%3Bdashed%3D1%3B%22%20vertex%3D%221%22%20parent%3D%225%22%3E%3CmxGeometry%20x%3D%2255%22%20y%3D%2260%22%20width%3D%2210%22%20height%3D%22930%22%20as%3D%22geometry%22%2F%3E%3C%2FmxCell%3E%3CmxCell%20id%3D%228%22%20value%3D%22%22%20style%3D%22rounded%3D1%3BwhiteSpace%3Dwrap%3Bhtml%3D1%3BfontSize%3D9%3B%22%20vertex%3D%221%22%20parent%3D%225%22%3E%3CmxGeometry%20x%3D%2250%22%20y%3D%2280%22%20width%3D%2220%22%20height%3D%22120%22%20as%3D%22geometry%22%2F%3E%3C%2FmxCell%3E%3CmxCell%20id%3D%229%22%20value%3D%22%22%20style%3D%22rounded%3D1%3BwhiteSpace%3Dwrap%3Bhtml%3D1%3BfontSize%3D9%3B%22%20vertex%3D%221%22%20parent%3D%225%22%3E%3CmxGeometry%20x%3D%2250%22%20y%3D%22210%22%20width%3D%2220%22%20height%3D%2260%22%20as%3D%22geometry%22%2F%3E%3C%2FmxCell%3E%3C%2Froot%3E%3C%2FmxGraphModel%3E&lt;/span&gt;" style="rounded=1;whiteSpace=wrap;html=1;fontSize=9;fontColor=#000000;fillColor=#FFFFFF;strokeColor=#000000;strokeWidth=0.5;" vertex="1" parent="136">
                    <mxGeometry x="770" y="250" width="20" height="40" as="geometry"/>
                </mxCell>
                <mxCell id="135" value="&lt;span style=&quot;font-family: monospace; font-size: 0px; text-align: start;&quot;&gt;%3CmxGraphModel%3E%3Croot%3E%3CmxCell%20id%3D%220%22%2F%3E%3CmxCell%20id%3D%221%22%20parent%3D%220%22%2F%3E%3CmxCell%20id%3D%222%22%20value%3D%22%22%20style%3D%22group%22%20vertex%3D%221%22%20connectable%3D%220%22%20parent%3D%221%22%3E%3CmxGeometry%20x%3D%22360%22%20y%3D%2260%22%20width%3D%22140%22%20height%3D%22990%22%20as%3D%22geometry%22%2F%3E%3C%2FmxCell%3E%3CmxCell%20id%3D%223%22%20value%3D%22Node%201%22%20style%3D%22rounded%3D1%3BwhiteSpace%3Dwrap%3Bhtml%3D1%3B%22%20vertex%3D%221%22%20parent%3D%222%22%3E%3CmxGeometry%20width%3D%22120%22%20height%3D%2260%22%20as%3D%22geometry%22%2F%3E%3C%2FmxCell%3E%3CmxCell%20id%3D%224%22%20value%3D%22%22%20style%3D%22line%3BstrokeWidth%3D1%3Bdirection%3Dsouth%3Bhtml%3D1%3Bperimeter%3DbackbonePerimeter%3Bpoints%3D%5B%5D%3BoutlineConnect%3D0%3BperimeterSpacing%3D0%3Bdashed%3D1%3B%22%20vertex%3D%221%22%20parent%3D%222%22%3E%3CmxGeometry%20x%3D%2255%22%20y%3D%2260%22%20width%3D%2210%22%20height%3D%22930%22%20as%3D%22geometry%22%2F%3E%3C%2FmxCell%3E%3CmxCell%20id%3D%225%22%20value%3D%22%22%20style%3D%22group%22%20vertex%3D%221%22%20connectable%3D%220%22%20parent%3D%222%22%3E%3CmxGeometry%20width%3D%22130%22%20height%3D%22990%22%20as%3D%22geometry%22%2F%3E%3C%2FmxCell%3E%3CmxCell%20id%3D%226%22%20value%3D%22Node%201%22%20style%3D%22rounded%3D1%3BwhiteSpace%3Dwrap%3Bhtml%3D1%3B%22%20vertex%3D%221%22%20parent%3D%225%22%3E%3CmxGeometry%20width%3D%22120%22%20height%3D%2260%22%20as%3D%22geometry%22%2F%3E%3C%2FmxCell%3E%3CmxCell%20id%3D%227%22%20value%3D%22%22%20style%3D%22line%3BstrokeWidth%3D1%3Bdirection%3Dsouth%3Bhtml%3D1%3Bperimeter%3DbackbonePerimeter%3Bpoints%3D%5B%5D%3BoutlineConnect%3D0%3BperimeterSpacing%3D0%3Bdashed%3D1%3B%22%20vertex%3D%221%22%20parent%3D%225%22%3E%3CmxGeometry%20x%3D%2255%22%20y%3D%2260%22%20width%3D%2210%22%20height%3D%22930%22%20as%3D%22geometry%22%2F%3E%3C%2FmxCell%3E%3CmxCell%20id%3D%228%22%20value%3D%22%22%20style%3D%22rounded%3D1%3BwhiteSpace%3Dwrap%3Bhtml%3D1%3BfontSize%3D9%3B%22%20vertex%3D%221%22%20parent%3D%225%22%3E%3CmxGeometry%20x%3D%2250%22%20y%3D%2280%22%20width%3D%2220%22%20height%3D%22120%22%20as%3D%22geometry%22%2F%3E%3C%2FmxCell%3E%3CmxCell%20id%3D%229%22%20value%3D%22%22%20style%3D%22rounded%3D1%3BwhiteSpace%3Dwrap%3Bhtml%3D1%3BfontSize%3D9%3B%22%20vertex%3D%221%22%20parent%3D%225%22%3E%3CmxGeometry%20x%3D%2250%22%20y%3D%22210%22%20width%3D%2220%22%20height%3D%2260%22%20as%3D%22geometry%22%2F%3E%3C%2FmxCell%3E%3C%2Froot%3E%3C%2FmxGraphModel%3E&lt;/span&gt;" style="rounded=1;whiteSpace=wrap;html=1;fontSize=9;fontColor=#000000;fillColor=#FFFFFF;strokeColor=#000000;strokeWidth=0.5;" vertex="1" parent="136">
                    <mxGeometry x="1090" y="290" width="20" height="40" as="geometry"/>
                </mxCell>
                <mxCell id="225" value="" style="group;fontColor=#000000;" vertex="1" connectable="0" parent="1">
                    <mxGeometry x="-622" y="1086" width="1130" height="350" as="geometry"/>
                </mxCell>
                <mxCell id="138" value="" style="rounded=1;whiteSpace=wrap;html=1;fontSize=9;dashed=1;strokeWidth=1;perimeterSpacing=0;opacity=30;arcSize=4;fontColor=#000000;fillColor=none;strokeColor=#000000;" vertex="1" parent="225">
                    <mxGeometry x="90" width="1040" height="350" as="geometry"/>
                </mxCell>
                <mxCell id="139" value="" style="endArrow=none;html=1;endFill=0;startArrow=classic;startFill=1;fontColor=#000000;strokeColor=#000000;" edge="1" parent="225">
                    <mxGeometry width="50" height="50" relative="1" as="geometry">
                        <mxPoint x="470" y="29.549999999999955" as="sourcePoint"/>
                        <mxPoint x="770" y="29.549999999999955" as="targetPoint"/>
                    </mxGeometry>
                </mxCell>
                <mxCell id="149" value="&lt;span style=&quot;font-family: monospace; font-size: 0px; text-align: start;&quot;&gt;%3CmxGraphModel%3E%3Croot%3E%3CmxCell%20id%3D%220%22%2F%3E%3CmxCell%20id%3D%221%22%20parent%3D%220%22%2F%3E%3CmxCell%20id%3D%222%22%20value%3D%22%22%20style%3D%22group%22%20vertex%3D%221%22%20connectable%3D%220%22%20parent%3D%221%22%3E%3CmxGeometry%20x%3D%22360%22%20y%3D%2260%22%20width%3D%22140%22%20height%3D%22990%22%20as%3D%22geometry%22%2F%3E%3C%2FmxCell%3E%3CmxCell%20id%3D%223%22%20value%3D%22Node%201%22%20style%3D%22rounded%3D1%3BwhiteSpace%3Dwrap%3Bhtml%3D1%3B%22%20vertex%3D%221%22%20parent%3D%222%22%3E%3CmxGeometry%20width%3D%22120%22%20height%3D%2260%22%20as%3D%22geometry%22%2F%3E%3C%2FmxCell%3E%3CmxCell%20id%3D%224%22%20value%3D%22%22%20style%3D%22line%3BstrokeWidth%3D1%3Bdirection%3Dsouth%3Bhtml%3D1%3Bperimeter%3DbackbonePerimeter%3Bpoints%3D%5B%5D%3BoutlineConnect%3D0%3BperimeterSpacing%3D0%3Bdashed%3D1%3B%22%20vertex%3D%221%22%20parent%3D%222%22%3E%3CmxGeometry%20x%3D%2255%22%20y%3D%2260%22%20width%3D%2210%22%20height%3D%22930%22%20as%3D%22geometry%22%2F%3E%3C%2FmxCell%3E%3CmxCell%20id%3D%225%22%20value%3D%22%22%20style%3D%22group%22%20vertex%3D%221%22%20connectable%3D%220%22%20parent%3D%222%22%3E%3CmxGeometry%20width%3D%22130%22%20height%3D%22990%22%20as%3D%22geometry%22%2F%3E%3C%2FmxCell%3E%3CmxCell%20id%3D%226%22%20value%3D%22Node%201%22%20style%3D%22rounded%3D1%3BwhiteSpace%3Dwrap%3Bhtml%3D1%3B%22%20vertex%3D%221%22%20parent%3D%225%22%3E%3CmxGeometry%20width%3D%22120%22%20height%3D%2260%22%20as%3D%22geometry%22%2F%3E%3C%2FmxCell%3E%3CmxCell%20id%3D%227%22%20value%3D%22%22%20style%3D%22line%3BstrokeWidth%3D1%3Bdirection%3Dsouth%3Bhtml%3D1%3Bperimeter%3DbackbonePerimeter%3Bpoints%3D%5B%5D%3BoutlineConnect%3D0%3BperimeterSpacing%3D0%3Bdashed%3D1%3B%22%20vertex%3D%221%22%20parent%3D%225%22%3E%3CmxGeometry%20x%3D%2255%22%20y%3D%2260%22%20width%3D%2210%22%20height%3D%22930%22%20as%3D%22geometry%22%2F%3E%3C%2FmxCell%3E%3CmxCell%20id%3D%228%22%20value%3D%22%22%20style%3D%22rounded%3D1%3BwhiteSpace%3Dwrap%3Bhtml%3D1%3BfontSize%3D9%3B%22%20vertex%3D%221%22%20parent%3D%225%22%3E%3CmxGeometry%20x%3D%2250%22%20y%3D%2280%22%20width%3D%2220%22%20height%3D%22120%22%20as%3D%22geometry%22%2F%3E%3C%2FmxCell%3E%3CmxCell%20id%3D%229%22%20value%3D%22%22%20style%3D%22rounded%3D1%3BwhiteSpace%3Dwrap%3Bhtml%3D1%3BfontSize%3D9%3B%22%20vertex%3D%221%22%20parent%3D%225%22%3E%3CmxGeometry%20x%3D%2250%22%20y%3D%22210%22%20width%3D%2220%22%20height%3D%2260%22%20as%3D%22geometry%22%2F%3E%3C%2FmxCell%3E%3C%2Froot%3E%3C%2FmxGraphModel%3E&lt;/span&gt;" style="rounded=1;whiteSpace=wrap;html=1;fontSize=9;fontColor=#000000;fillColor=#FFFFFF;strokeColor=#000000;strokeWidth=0.5;" vertex="1" parent="225">
                    <mxGeometry x="450" y="10" width="20" height="330" as="geometry"/>
                </mxCell>
                <mxCell id="150" value="&lt;font style=&quot;font-size: 9px;&quot;&gt;Requests for Lock&lt;br&gt;&lt;/font&gt;" style="text;html=1;align=center;verticalAlign=middle;resizable=0;points=[];autosize=1;strokeColor=none;fillColor=none;dashed=1;strokeWidth=1;fontColor=#000000;" vertex="1" parent="225">
                    <mxGeometry x="570" width="100" height="30" as="geometry"/>
                </mxCell>
                <mxCell id="151" value="Requesting Lock&lt;br&gt;(Normal)" style="text;html=1;strokeColor=none;fillColor=none;align=center;verticalAlign=middle;whiteSpace=wrap;rounded=0;dashed=1;sketch=1;strokeWidth=1;fontSize=9;opacity=30;fontColor=#000000;" vertex="1" parent="225">
                    <mxGeometry y="150" width="90" height="30" as="geometry"/>
                </mxCell>
                <mxCell id="157" value="&lt;span style=&quot;font-family: monospace; font-size: 0px; text-align: start;&quot;&gt;%3CmxGraphModel%3E%3Croot%3E%3CmxCell%20id%3D%220%22%2F%3E%3CmxCell%20id%3D%221%22%20parent%3D%220%22%2F%3E%3CmxCell%20id%3D%222%22%20value%3D%22%22%20style%3D%22group%22%20vertex%3D%221%22%20connectable%3D%220%22%20parent%3D%221%22%3E%3CmxGeometry%20x%3D%22360%22%20y%3D%2260%22%20width%3D%22140%22%20height%3D%22990%22%20as%3D%22geometry%22%2F%3E%3C%2FmxCell%3E%3CmxCell%20id%3D%223%22%20value%3D%22Node%201%22%20style%3D%22rounded%3D1%3BwhiteSpace%3Dwrap%3Bhtml%3D1%3B%22%20vertex%3D%221%22%20parent%3D%222%22%3E%3CmxGeometry%20width%3D%22120%22%20height%3D%2260%22%20as%3D%22geometry%22%2F%3E%3C%2FmxCell%3E%3CmxCell%20id%3D%224%22%20value%3D%22%22%20style%3D%22line%3BstrokeWidth%3D1%3Bdirection%3Dsouth%3Bhtml%3D1%3Bperimeter%3DbackbonePerimeter%3Bpoints%3D%5B%5D%3BoutlineConnect%3D0%3BperimeterSpacing%3D0%3Bdashed%3D1%3B%22%20vertex%3D%221%22%20parent%3D%222%22%3E%3CmxGeometry%20x%3D%2255%22%20y%3D%2260%22%20width%3D%2210%22%20height%3D%22930%22%20as%3D%22geometry%22%2F%3E%3C%2FmxCell%3E%3CmxCell%20id%3D%225%22%20value%3D%22%22%20style%3D%22group%22%20vertex%3D%221%22%20connectable%3D%220%22%20parent%3D%222%22%3E%3CmxGeometry%20width%3D%22130%22%20height%3D%22990%22%20as%3D%22geometry%22%2F%3E%3C%2FmxCell%3E%3CmxCell%20id%3D%226%22%20value%3D%22Node%201%22%20style%3D%22rounded%3D1%3BwhiteSpace%3Dwrap%3Bhtml%3D1%3B%22%20vertex%3D%221%22%20parent%3D%225%22%3E%3CmxGeometry%20width%3D%22120%22%20height%3D%2260%22%20as%3D%22geometry%22%2F%3E%3C%2FmxCell%3E%3CmxCell%20id%3D%227%22%20value%3D%22%22%20style%3D%22line%3BstrokeWidth%3D1%3Bdirection%3Dsouth%3Bhtml%3D1%3Bperimeter%3DbackbonePerimeter%3Bpoints%3D%5B%5D%3BoutlineConnect%3D0%3BperimeterSpacing%3D0%3Bdashed%3D1%3B%22%20vertex%3D%221%22%20parent%3D%225%22%3E%3CmxGeometry%20x%3D%2255%22%20y%3D%2260%22%20width%3D%2210%22%20height%3D%22930%22%20as%3D%22geometry%22%2F%3E%3C%2FmxCell%3E%3CmxCell%20id%3D%228%22%20value%3D%22%22%20style%3D%22rounded%3D1%3BwhiteSpace%3Dwrap%3Bhtml%3D1%3BfontSize%3D9%3B%22%20vertex%3D%221%22%20parent%3D%225%22%3E%3CmxGeometry%20x%3D%2250%22%20y%3D%2280%22%20width%3D%2220%22%20height%3D%22120%22%20as%3D%22geometry%22%2F%3E%3C%2FmxCell%3E%3CmxCell%20id%3D%229%22%20value%3D%22%22%20style%3D%22rounded%3D1%3BwhiteSpace%3Dwrap%3Bhtml%3D1%3BfontSize%3D9%3B%22%20vertex%3D%221%22%20parent%3D%225%22%3E%3CmxGeometry%20x%3D%2250%22%20y%3D%22210%22%20width%3D%2220%22%20height%3D%2260%22%20as%3D%22geometry%22%2F%3E%3C%2FmxCell%3E%3C%2Froot%3E%3C%2FmxGraphModel%3E&lt;/span&gt;" style="rounded=1;whiteSpace=wrap;html=1;fontSize=9;fontColor=#000000;fillColor=#FFFFFF;strokeColor=#000000;strokeWidth=0.5;" vertex="1" parent="225">
                    <mxGeometry x="770" y="10" width="20" height="220" as="geometry"/>
                </mxCell>
                <mxCell id="158" value="&lt;span style=&quot;font-family: monospace; font-size: 0px; text-align: start;&quot;&gt;%3CmxGraphModel%3E%3Croot%3E%3CmxCell%20id%3D%220%22%2F%3E%3CmxCell%20id%3D%221%22%20parent%3D%220%22%2F%3E%3CmxCell%20id%3D%222%22%20value%3D%22%22%20style%3D%22group%22%20vertex%3D%221%22%20connectable%3D%220%22%20parent%3D%221%22%3E%3CmxGeometry%20x%3D%22360%22%20y%3D%2260%22%20width%3D%22140%22%20height%3D%22990%22%20as%3D%22geometry%22%2F%3E%3C%2FmxCell%3E%3CmxCell%20id%3D%223%22%20value%3D%22Node%201%22%20style%3D%22rounded%3D1%3BwhiteSpace%3Dwrap%3Bhtml%3D1%3B%22%20vertex%3D%221%22%20parent%3D%222%22%3E%3CmxGeometry%20width%3D%22120%22%20height%3D%2260%22%20as%3D%22geometry%22%2F%3E%3C%2FmxCell%3E%3CmxCell%20id%3D%224%22%20value%3D%22%22%20style%3D%22line%3BstrokeWidth%3D1%3Bdirection%3Dsouth%3Bhtml%3D1%3Bperimeter%3DbackbonePerimeter%3Bpoints%3D%5B%5D%3BoutlineConnect%3D0%3BperimeterSpacing%3D0%3Bdashed%3D1%3B%22%20vertex%3D%221%22%20parent%3D%222%22%3E%3CmxGeometry%20x%3D%2255%22%20y%3D%2260%22%20width%3D%2210%22%20height%3D%22930%22%20as%3D%22geometry%22%2F%3E%3C%2FmxCell%3E%3CmxCell%20id%3D%225%22%20value%3D%22%22%20style%3D%22group%22%20vertex%3D%221%22%20connectable%3D%220%22%20parent%3D%222%22%3E%3CmxGeometry%20width%3D%22130%22%20height%3D%22990%22%20as%3D%22geometry%22%2F%3E%3C%2FmxCell%3E%3CmxCell%20id%3D%226%22%20value%3D%22Node%201%22%20style%3D%22rounded%3D1%3BwhiteSpace%3Dwrap%3Bhtml%3D1%3B%22%20vertex%3D%221%22%20parent%3D%225%22%3E%3CmxGeometry%20width%3D%22120%22%20height%3D%2260%22%20as%3D%22geometry%22%2F%3E%3C%2FmxCell%3E%3CmxCell%20id%3D%227%22%20value%3D%22%22%20style%3D%22line%3BstrokeWidth%3D1%3Bdirection%3Dsouth%3Bhtml%3D1%3Bperimeter%3DbackbonePerimeter%3Bpoints%3D%5B%5D%3BoutlineConnect%3D0%3BperimeterSpacing%3D0%3Bdashed%3D1%3B%22%20vertex%3D%221%22%20parent%3D%225%22%3E%3CmxGeometry%20x%3D%2255%22%20y%3D%2260%22%20width%3D%2210%22%20height%3D%22930%22%20as%3D%22geometry%22%2F%3E%3C%2FmxCell%3E%3CmxCell%20id%3D%228%22%20value%3D%22%22%20style%3D%22rounded%3D1%3BwhiteSpace%3Dwrap%3Bhtml%3D1%3BfontSize%3D9%3B%22%20vertex%3D%221%22%20parent%3D%225%22%3E%3CmxGeometry%20x%3D%2250%22%20y%3D%2280%22%20width%3D%2220%22%20height%3D%22120%22%20as%3D%22geometry%22%2F%3E%3C%2FmxCell%3E%3CmxCell%20id%3D%229%22%20value%3D%22%22%20style%3D%22rounded%3D1%3BwhiteSpace%3Dwrap%3Bhtml%3D1%3BfontSize%3D9%3B%22%20vertex%3D%221%22%20parent%3D%225%22%3E%3CmxGeometry%20x%3D%2250%22%20y%3D%22210%22%20width%3D%2220%22%20height%3D%2260%22%20as%3D%22geometry%22%2F%3E%3C%2FmxCell%3E%3C%2Froot%3E%3C%2FmxGraphModel%3E&lt;/span&gt;" style="rounded=1;whiteSpace=wrap;html=1;fontSize=9;fontColor=#000000;fillColor=#FFFFFF;strokeColor=#000000;strokeWidth=0.5;" vertex="1" parent="225">
                    <mxGeometry x="1090" y="130" width="20" height="210" as="geometry"/>
                </mxCell>
                <mxCell id="161" value="" style="endArrow=classic;html=1;endFill=1;startArrow=none;startFill=0;fontColor=#000000;strokeColor=#000000;" edge="1" parent="225">
                    <mxGeometry width="50" height="50" relative="1" as="geometry">
                        <mxPoint x="470" y="69.54999999999995" as="sourcePoint"/>
                        <mxPoint x="770" y="69.54999999999995" as="targetPoint"/>
                    </mxGeometry>
                </mxCell>
                <mxCell id="162" value="&lt;font style=&quot;font-size: 9px;&quot;&gt;Grants Lock&lt;br&gt;&lt;/font&gt;" style="text;html=1;align=center;verticalAlign=middle;resizable=0;points=[];autosize=1;strokeColor=none;fillColor=none;dashed=1;strokeWidth=1;fontColor=#000000;" vertex="1" parent="225">
                    <mxGeometry x="585" y="40" width="70" height="30" as="geometry"/>
                </mxCell>
                <mxCell id="163" value="" style="endArrow=classic;html=1;fontColor=#000000;strokeColor=#000000;" edge="1" parent="225">
                    <mxGeometry width="50" height="50" relative="1" as="geometry">
                        <mxPoint x="770" y="95" as="sourcePoint"/>
                        <mxPoint x="770" y="135" as="targetPoint"/>
                        <Array as="points">
                            <mxPoint x="740" y="95"/>
                            <mxPoint x="740" y="135"/>
                        </Array>
                    </mxGeometry>
                </mxCell>
                <mxCell id="164" value="&lt;font size=&quot;1&quot;&gt;Executes critical section&lt;/font&gt;" style="text;html=1;align=center;verticalAlign=middle;resizable=0;points=[];autosize=1;strokeColor=none;fillColor=none;dashed=1;strokeWidth=1;fontColor=#000000;" vertex="1" parent="225">
                    <mxGeometry x="610" y="100" width="130" height="30" as="geometry"/>
                </mxCell>
                <mxCell id="165" value="" style="endArrow=classic;html=1;endFill=0;startArrow=classic;startFill=1;fontColor=#000000;strokeColor=#000000;" edge="1" parent="225">
                    <mxGeometry width="50" height="50" relative="1" as="geometry">
                        <mxPoint x="473" y="159.30999999999995" as="sourcePoint"/>
                        <mxPoint x="1088" y="159" as="targetPoint"/>
                    </mxGeometry>
                </mxCell>
                <mxCell id="166" value="&lt;font style=&quot;font-size: 9px;&quot;&gt;Requests for Lock&lt;br&gt;&lt;/font&gt;" style="text;html=1;align=center;verticalAlign=middle;resizable=0;points=[];autosize=1;strokeColor=none;fillColor=none;dashed=1;strokeWidth=1;fontColor=#000000;" vertex="1" parent="225">
                    <mxGeometry x="830" y="130" width="100" height="30" as="geometry"/>
                </mxCell>
                <mxCell id="169" value="" style="endArrow=none;html=1;endFill=0;startArrow=classic;startFill=1;fontColor=#000000;strokeColor=#000000;" edge="1" parent="225">
                    <mxGeometry width="50" height="50" relative="1" as="geometry">
                        <mxPoint x="469" y="209.54999999999995" as="sourcePoint"/>
                        <mxPoint x="769" y="209.54999999999995" as="targetPoint"/>
                    </mxGeometry>
                </mxCell>
                <mxCell id="170" value="&lt;font style=&quot;font-size: 9px;&quot;&gt;Release Lock&lt;br&gt;&lt;/font&gt;" style="text;html=1;align=center;verticalAlign=middle;resizable=0;points=[];autosize=1;strokeColor=none;fillColor=none;dashed=1;strokeWidth=1;fontColor=#000000;" vertex="1" parent="225">
                    <mxGeometry x="580" y="180" width="80" height="30" as="geometry"/>
                </mxCell>
                <mxCell id="171" value="" style="endArrow=classic;html=1;endFill=1;startArrow=none;startFill=0;fontColor=#000000;strokeColor=#000000;" edge="1" parent="225">
                    <mxGeometry width="50" height="50" relative="1" as="geometry">
                        <mxPoint x="471" y="249.33999999999992" as="sourcePoint"/>
                        <mxPoint x="1088" y="248" as="targetPoint"/>
                    </mxGeometry>
                </mxCell>
                <mxCell id="172" value="&lt;font style=&quot;font-size: 9px;&quot;&gt;Grants Lock&lt;br&gt;&lt;/font&gt;" style="text;html=1;align=center;verticalAlign=middle;resizable=0;points=[];autosize=1;strokeColor=none;fillColor=none;dashed=1;strokeWidth=1;fontColor=#000000;" vertex="1" parent="225">
                    <mxGeometry x="640" y="220" width="70" height="30" as="geometry"/>
                </mxCell>
                <mxCell id="173" value="" style="endArrow=classic;html=1;fontColor=#000000;strokeColor=#000000;" edge="1" parent="225">
                    <mxGeometry width="50" height="50" relative="1" as="geometry">
                        <mxPoint x="1090" y="260" as="sourcePoint"/>
                        <mxPoint x="1090" y="300" as="targetPoint"/>
                        <Array as="points">
                            <mxPoint x="1060" y="260"/>
                            <mxPoint x="1060" y="300"/>
                        </Array>
                    </mxGeometry>
                </mxCell>
                <mxCell id="174" value="&lt;font size=&quot;1&quot;&gt;Executes critical section&lt;/font&gt;" style="text;html=1;align=center;verticalAlign=middle;resizable=0;points=[];autosize=1;strokeColor=none;fillColor=none;dashed=1;strokeWidth=1;fontColor=#000000;" vertex="1" parent="225">
                    <mxGeometry x="930" y="265" width="130" height="30" as="geometry"/>
                </mxCell>
                <mxCell id="175" value="" style="endArrow=none;html=1;endFill=0;startArrow=classic;startFill=1;fontColor=#000000;strokeColor=#000000;" edge="1" parent="225">
                    <mxGeometry width="50" height="50" relative="1" as="geometry">
                        <mxPoint x="475" y="319.54999999999995" as="sourcePoint"/>
                        <mxPoint x="1090" y="320" as="targetPoint"/>
                    </mxGeometry>
                </mxCell>
                <mxCell id="176" value="&lt;font style=&quot;font-size: 9px;&quot;&gt;Release Lock&lt;br&gt;&lt;/font&gt;" style="text;html=1;align=center;verticalAlign=middle;resizable=0;points=[];autosize=1;strokeColor=none;fillColor=none;dashed=1;strokeWidth=1;fontColor=#000000;" vertex="1" parent="225">
                    <mxGeometry x="586" y="290" width="80" height="30" as="geometry"/>
                </mxCell>
                <mxCell id="232" value="" style="group" vertex="1" connectable="0" parent="1">
                    <mxGeometry x="-642" y="1470" width="1150" height="653" as="geometry"/>
                </mxCell>
                <mxCell id="230" value="" style="rounded=1;whiteSpace=wrap;html=1;fontSize=9;dashed=1;strokeWidth=1;perimeterSpacing=0;opacity=30;arcSize=4;fontColor=#000000;fillColor=none;strokeColor=#000000;" vertex="1" parent="232">
                    <mxGeometry x="110" width="1040" height="653" as="geometry"/>
                </mxCell>
                <mxCell id="181" value="" style="endArrow=none;html=1;endFill=0;startArrow=classic;startFill=1;fontColor=#000000;strokeColor=#000000;" edge="1" parent="232">
                    <mxGeometry width="50" height="50" relative="1" as="geometry">
                        <mxPoint x="490" y="35.549999999999955" as="sourcePoint"/>
                        <mxPoint x="790" y="35.549999999999955" as="targetPoint"/>
                    </mxGeometry>
                </mxCell>
                <mxCell id="182" value="&lt;span style=&quot;font-family: monospace; font-size: 0px; text-align: start;&quot;&gt;%3CmxGraphModel%3E%3Croot%3E%3CmxCell%20id%3D%220%22%2F%3E%3CmxCell%20id%3D%221%22%20parent%3D%220%22%2F%3E%3CmxCell%20id%3D%222%22%20value%3D%22%22%20style%3D%22group%22%20vertex%3D%221%22%20connectable%3D%220%22%20parent%3D%221%22%3E%3CmxGeometry%20x%3D%22360%22%20y%3D%2260%22%20width%3D%22140%22%20height%3D%22990%22%20as%3D%22geometry%22%2F%3E%3C%2FmxCell%3E%3CmxCell%20id%3D%223%22%20value%3D%22Node%201%22%20style%3D%22rounded%3D1%3BwhiteSpace%3Dwrap%3Bhtml%3D1%3B%22%20vertex%3D%221%22%20parent%3D%222%22%3E%3CmxGeometry%20width%3D%22120%22%20height%3D%2260%22%20as%3D%22geometry%22%2F%3E%3C%2FmxCell%3E%3CmxCell%20id%3D%224%22%20value%3D%22%22%20style%3D%22line%3BstrokeWidth%3D1%3Bdirection%3Dsouth%3Bhtml%3D1%3Bperimeter%3DbackbonePerimeter%3Bpoints%3D%5B%5D%3BoutlineConnect%3D0%3BperimeterSpacing%3D0%3Bdashed%3D1%3B%22%20vertex%3D%221%22%20parent%3D%222%22%3E%3CmxGeometry%20x%3D%2255%22%20y%3D%2260%22%20width%3D%2210%22%20height%3D%22930%22%20as%3D%22geometry%22%2F%3E%3C%2FmxCell%3E%3CmxCell%20id%3D%225%22%20value%3D%22%22%20style%3D%22group%22%20vertex%3D%221%22%20connectable%3D%220%22%20parent%3D%222%22%3E%3CmxGeometry%20width%3D%22130%22%20height%3D%22990%22%20as%3D%22geometry%22%2F%3E%3C%2FmxCell%3E%3CmxCell%20id%3D%226%22%20value%3D%22Node%201%22%20style%3D%22rounded%3D1%3BwhiteSpace%3Dwrap%3Bhtml%3D1%3B%22%20vertex%3D%221%22%20parent%3D%225%22%3E%3CmxGeometry%20width%3D%22120%22%20height%3D%2260%22%20as%3D%22geometry%22%2F%3E%3C%2FmxCell%3E%3CmxCell%20id%3D%227%22%20value%3D%22%22%20style%3D%22line%3BstrokeWidth%3D1%3Bdirection%3Dsouth%3Bhtml%3D1%3Bperimeter%3DbackbonePerimeter%3Bpoints%3D%5B%5D%3BoutlineConnect%3D0%3BperimeterSpacing%3D0%3Bdashed%3D1%3B%22%20vertex%3D%221%22%20parent%3D%225%22%3E%3CmxGeometry%20x%3D%2255%22%20y%3D%2260%22%20width%3D%2210%22%20height%3D%22930%22%20as%3D%22geometry%22%2F%3E%3C%2FmxCell%3E%3CmxCell%20id%3D%228%22%20value%3D%22%22%20style%3D%22rounded%3D1%3BwhiteSpace%3Dwrap%3Bhtml%3D1%3BfontSize%3D9%3B%22%20vertex%3D%221%22%20parent%3D%225%22%3E%3CmxGeometry%20x%3D%2250%22%20y%3D%2280%22%20width%3D%2220%22%20height%3D%22120%22%20as%3D%22geometry%22%2F%3E%3C%2FmxCell%3E%3CmxCell%20id%3D%229%22%20value%3D%22%22%20style%3D%22rounded%3D1%3BwhiteSpace%3Dwrap%3Bhtml%3D1%3BfontSize%3D9%3B%22%20vertex%3D%221%22%20parent%3D%225%22%3E%3CmxGeometry%20x%3D%2250%22%20y%3D%22210%22%20width%3D%2220%22%20height%3D%2260%22%20as%3D%22geometry%22%2F%3E%3C%2FmxCell%3E%3C%2Froot%3E%3C%2FmxGraphModel%3E&lt;/span&gt;" style="rounded=1;whiteSpace=wrap;html=1;fontSize=9;fontColor=#000000;fillColor=#FFFFFF;strokeColor=#000000;strokeWidth=0.5;" vertex="1" parent="232">
                    <mxGeometry x="470" y="16" width="20" height="160" as="geometry"/>
                </mxCell>
                <mxCell id="183" value="&lt;font style=&quot;font-size: 9px;&quot;&gt;Requests for Lock&lt;br&gt;&lt;/font&gt;" style="text;html=1;align=center;verticalAlign=middle;resizable=0;points=[];autosize=1;strokeColor=none;fillColor=none;dashed=1;strokeWidth=1;fontColor=#000000;" vertex="1" parent="232">
                    <mxGeometry x="590" y="6" width="100" height="30" as="geometry"/>
                </mxCell>
                <mxCell id="184" value="Requesting Lock&lt;br&gt;(Node 1 permanently fails)" style="text;html=1;strokeColor=none;fillColor=none;align=center;verticalAlign=middle;whiteSpace=wrap;rounded=0;dashed=1;sketch=1;strokeWidth=1;fontSize=9;opacity=30;fontColor=#000000;" vertex="1" parent="232">
                    <mxGeometry y="366" width="110" height="30" as="geometry"/>
                </mxCell>
                <mxCell id="185" value="&lt;span style=&quot;font-family: monospace; font-size: 0px; text-align: start;&quot;&gt;%3CmxGraphModel%3E%3Croot%3E%3CmxCell%20id%3D%220%22%2F%3E%3CmxCell%20id%3D%221%22%20parent%3D%220%22%2F%3E%3CmxCell%20id%3D%222%22%20value%3D%22%22%20style%3D%22group%22%20vertex%3D%221%22%20connectable%3D%220%22%20parent%3D%221%22%3E%3CmxGeometry%20x%3D%22360%22%20y%3D%2260%22%20width%3D%22140%22%20height%3D%22990%22%20as%3D%22geometry%22%2F%3E%3C%2FmxCell%3E%3CmxCell%20id%3D%223%22%20value%3D%22Node%201%22%20style%3D%22rounded%3D1%3BwhiteSpace%3Dwrap%3Bhtml%3D1%3B%22%20vertex%3D%221%22%20parent%3D%222%22%3E%3CmxGeometry%20width%3D%22120%22%20height%3D%2260%22%20as%3D%22geometry%22%2F%3E%3C%2FmxCell%3E%3CmxCell%20id%3D%224%22%20value%3D%22%22%20style%3D%22line%3BstrokeWidth%3D1%3Bdirection%3Dsouth%3Bhtml%3D1%3Bperimeter%3DbackbonePerimeter%3Bpoints%3D%5B%5D%3BoutlineConnect%3D0%3BperimeterSpacing%3D0%3Bdashed%3D1%3B%22%20vertex%3D%221%22%20parent%3D%222%22%3E%3CmxGeometry%20x%3D%2255%22%20y%3D%2260%22%20width%3D%2210%22%20height%3D%22930%22%20as%3D%22geometry%22%2F%3E%3C%2FmxCell%3E%3CmxCell%20id%3D%225%22%20value%3D%22%22%20style%3D%22group%22%20vertex%3D%221%22%20connectable%3D%220%22%20parent%3D%222%22%3E%3CmxGeometry%20width%3D%22130%22%20height%3D%22990%22%20as%3D%22geometry%22%2F%3E%3C%2FmxCell%3E%3CmxCell%20id%3D%226%22%20value%3D%22Node%201%22%20style%3D%22rounded%3D1%3BwhiteSpace%3Dwrap%3Bhtml%3D1%3B%22%20vertex%3D%221%22%20parent%3D%225%22%3E%3CmxGeometry%20width%3D%22120%22%20height%3D%2260%22%20as%3D%22geometry%22%2F%3E%3C%2FmxCell%3E%3CmxCell%20id%3D%227%22%20value%3D%22%22%20style%3D%22line%3BstrokeWidth%3D1%3Bdirection%3Dsouth%3Bhtml%3D1%3Bperimeter%3DbackbonePerimeter%3Bpoints%3D%5B%5D%3BoutlineConnect%3D0%3BperimeterSpacing%3D0%3Bdashed%3D1%3B%22%20vertex%3D%221%22%20parent%3D%225%22%3E%3CmxGeometry%20x%3D%2255%22%20y%3D%2260%22%20width%3D%2210%22%20height%3D%22930%22%20as%3D%22geometry%22%2F%3E%3C%2FmxCell%3E%3CmxCell%20id%3D%228%22%20value%3D%22%22%20style%3D%22rounded%3D1%3BwhiteSpace%3Dwrap%3Bhtml%3D1%3BfontSize%3D9%3B%22%20vertex%3D%221%22%20parent%3D%225%22%3E%3CmxGeometry%20x%3D%2250%22%20y%3D%2280%22%20width%3D%2220%22%20height%3D%22120%22%20as%3D%22geometry%22%2F%3E%3C%2FmxCell%3E%3CmxCell%20id%3D%229%22%20value%3D%22%22%20style%3D%22rounded%3D1%3BwhiteSpace%3Dwrap%3Bhtml%3D1%3BfontSize%3D9%3B%22%20vertex%3D%221%22%20parent%3D%225%22%3E%3CmxGeometry%20x%3D%2250%22%20y%3D%22210%22%20width%3D%2220%22%20height%3D%2260%22%20as%3D%22geometry%22%2F%3E%3C%2FmxCell%3E%3C%2Froot%3E%3C%2FmxGraphModel%3E&lt;/span&gt;" style="rounded=1;whiteSpace=wrap;html=1;fontSize=9;fontColor=#000000;fillColor=#FFFFFF;strokeColor=#000000;strokeWidth=0.5;" vertex="1" parent="232">
                    <mxGeometry x="790" y="16" width="20" height="520" as="geometry"/>
                </mxCell>
                <mxCell id="186" value="&lt;span style=&quot;font-family: monospace; font-size: 0px; text-align: start;&quot;&gt;%3CmxGraphModel%3E%3Croot%3E%3CmxCell%20id%3D%220%22%2F%3E%3CmxCell%20id%3D%221%22%20parent%3D%220%22%2F%3E%3CmxCell%20id%3D%222%22%20value%3D%22%22%20style%3D%22group%22%20vertex%3D%221%22%20connectable%3D%220%22%20parent%3D%221%22%3E%3CmxGeometry%20x%3D%22360%22%20y%3D%2260%22%20width%3D%22140%22%20height%3D%22990%22%20as%3D%22geometry%22%2F%3E%3C%2FmxCell%3E%3CmxCell%20id%3D%223%22%20value%3D%22Node%201%22%20style%3D%22rounded%3D1%3BwhiteSpace%3Dwrap%3Bhtml%3D1%3B%22%20vertex%3D%221%22%20parent%3D%222%22%3E%3CmxGeometry%20width%3D%22120%22%20height%3D%2260%22%20as%3D%22geometry%22%2F%3E%3C%2FmxCell%3E%3CmxCell%20id%3D%224%22%20value%3D%22%22%20style%3D%22line%3BstrokeWidth%3D1%3Bdirection%3Dsouth%3Bhtml%3D1%3Bperimeter%3DbackbonePerimeter%3Bpoints%3D%5B%5D%3BoutlineConnect%3D0%3BperimeterSpacing%3D0%3Bdashed%3D1%3B%22%20vertex%3D%221%22%20parent%3D%222%22%3E%3CmxGeometry%20x%3D%2255%22%20y%3D%2260%22%20width%3D%2210%22%20height%3D%22930%22%20as%3D%22geometry%22%2F%3E%3C%2FmxCell%3E%3CmxCell%20id%3D%225%22%20value%3D%22%22%20style%3D%22group%22%20vertex%3D%221%22%20connectable%3D%220%22%20parent%3D%222%22%3E%3CmxGeometry%20width%3D%22130%22%20height%3D%22990%22%20as%3D%22geometry%22%2F%3E%3C%2FmxCell%3E%3CmxCell%20id%3D%226%22%20value%3D%22Node%201%22%20style%3D%22rounded%3D1%3BwhiteSpace%3Dwrap%3Bhtml%3D1%3B%22%20vertex%3D%221%22%20parent%3D%225%22%3E%3CmxGeometry%20width%3D%22120%22%20height%3D%2260%22%20as%3D%22geometry%22%2F%3E%3C%2FmxCell%3E%3CmxCell%20id%3D%227%22%20value%3D%22%22%20style%3D%22line%3BstrokeWidth%3D1%3Bdirection%3Dsouth%3Bhtml%3D1%3Bperimeter%3DbackbonePerimeter%3Bpoints%3D%5B%5D%3BoutlineConnect%3D0%3BperimeterSpacing%3D0%3Bdashed%3D1%3B%22%20vertex%3D%221%22%20parent%3D%225%22%3E%3CmxGeometry%20x%3D%2255%22%20y%3D%2260%22%20width%3D%2210%22%20height%3D%22930%22%20as%3D%22geometry%22%2F%3E%3C%2FmxCell%3E%3CmxCell%20id%3D%228%22%20value%3D%22%22%20style%3D%22rounded%3D1%3BwhiteSpace%3Dwrap%3Bhtml%3D1%3BfontSize%3D9%3B%22%20vertex%3D%221%22%20parent%3D%225%22%3E%3CmxGeometry%20x%3D%2250%22%20y%3D%2280%22%20width%3D%2220%22%20height%3D%22120%22%20as%3D%22geometry%22%2F%3E%3C%2FmxCell%3E%3CmxCell%20id%3D%229%22%20value%3D%22%22%20style%3D%22rounded%3D1%3BwhiteSpace%3Dwrap%3Bhtml%3D1%3BfontSize%3D9%3B%22%20vertex%3D%221%22%20parent%3D%225%22%3E%3CmxGeometry%20x%3D%2250%22%20y%3D%22210%22%20width%3D%2220%22%20height%3D%2260%22%20as%3D%22geometry%22%2F%3E%3C%2FmxCell%3E%3C%2Froot%3E%3C%2FmxGraphModel%3E&lt;/span&gt;" style="rounded=1;whiteSpace=wrap;html=1;fontSize=9;fontColor=#000000;fillColor=#FFFFFF;strokeColor=#000000;strokeWidth=0.5;" vertex="1" parent="232">
                    <mxGeometry x="1110" y="406" width="20" height="230" as="geometry"/>
                </mxCell>
                <mxCell id="187" value="" style="endArrow=classic;html=1;endFill=1;startArrow=none;startFill=0;fontColor=#000000;strokeColor=#000000;" edge="1" parent="232">
                    <mxGeometry width="50" height="50" relative="1" as="geometry">
                        <mxPoint x="490" y="75.54999999999995" as="sourcePoint"/>
                        <mxPoint x="790" y="75.54999999999995" as="targetPoint"/>
                    </mxGeometry>
                </mxCell>
                <mxCell id="188" value="&lt;font style=&quot;font-size: 9px;&quot;&gt;Grants Lock&lt;br&gt;&lt;/font&gt;" style="text;html=1;align=center;verticalAlign=middle;resizable=0;points=[];autosize=1;strokeColor=none;fillColor=none;dashed=1;strokeWidth=1;fontColor=#000000;" vertex="1" parent="232">
                    <mxGeometry x="605" y="46" width="70" height="30" as="geometry"/>
                </mxCell>
                <mxCell id="189" value="" style="endArrow=classic;html=1;fontColor=#000000;strokeColor=#000000;" edge="1" parent="232">
                    <mxGeometry width="50" height="50" relative="1" as="geometry">
                        <mxPoint x="790" y="101" as="sourcePoint"/>
                        <mxPoint x="790" y="141" as="targetPoint"/>
                        <Array as="points">
                            <mxPoint x="760" y="101"/>
                            <mxPoint x="760" y="141"/>
                        </Array>
                    </mxGeometry>
                </mxCell>
                <mxCell id="190" value="&lt;font size=&quot;1&quot;&gt;Executes critical section&lt;/font&gt;" style="text;html=1;align=center;verticalAlign=middle;resizable=0;points=[];autosize=1;strokeColor=none;fillColor=none;dashed=1;strokeWidth=1;fontColor=#000000;" vertex="1" parent="232">
                    <mxGeometry x="630" y="106" width="130" height="30" as="geometry"/>
                </mxCell>
                <mxCell id="191" value="" style="endArrow=none;html=1;endFill=0;startArrow=classic;startFill=1;fontColor=#000000;strokeColor=#000000;" edge="1" parent="232">
                    <mxGeometry width="50" height="50" relative="1" as="geometry">
                        <mxPoint x="170" y="467" as="sourcePoint"/>
                        <mxPoint x="1109" y="466" as="targetPoint"/>
                    </mxGeometry>
                </mxCell>
                <mxCell id="192" value="&lt;font style=&quot;font-size: 9px;&quot;&gt;Request for Lock&lt;br&gt;&lt;/font&gt;" style="text;html=1;align=center;verticalAlign=middle;resizable=0;points=[];autosize=1;strokeColor=none;fillColor=none;dashed=1;strokeWidth=1;fontColor=#000000;" vertex="1" parent="232">
                    <mxGeometry x="858" y="438" width="86" height="26" as="geometry"/>
                </mxCell>
                <mxCell id="193" value="" style="endArrow=classic;html=1;endFill=1;startArrow=none;startFill=0;exitX=1.15;exitY=0.762;exitDx=0;exitDy=0;exitPerimeter=0;fontColor=#000000;strokeColor=#000000;" edge="1" parent="232" source="209">
                    <mxGeometry width="50" height="50" relative="1" as="geometry">
                        <mxPoint x="490" y="515.55" as="sourcePoint"/>
                        <mxPoint x="790" y="515.55" as="targetPoint"/>
                    </mxGeometry>
                </mxCell>
                <mxCell id="194" value="&lt;font style=&quot;font-size: 9px;&quot;&gt;Release Lock&lt;br&gt;&lt;/font&gt;" style="text;html=1;align=center;verticalAlign=middle;resizable=0;points=[];autosize=1;strokeColor=none;fillColor=none;dashed=1;strokeWidth=1;fontColor=#000000;" vertex="1" parent="232">
                    <mxGeometry x="601" y="486" width="80" height="30" as="geometry"/>
                </mxCell>
                <mxCell id="195" value="" style="endArrow=classic;html=1;endFill=1;startArrow=none;startFill=0;exitX=1.016;exitY=0.836;exitDx=0;exitDy=0;exitPerimeter=0;fontColor=#000000;strokeColor=#000000;" edge="1" parent="232" source="209">
                    <mxGeometry width="50" height="50" relative="1" as="geometry">
                        <mxPoint x="492" y="555.3399999999999" as="sourcePoint"/>
                        <mxPoint x="1109" y="554" as="targetPoint"/>
                    </mxGeometry>
                </mxCell>
                <mxCell id="196" value="&lt;font style=&quot;font-size: 9px;&quot;&gt;Grants Lock&lt;br&gt;&lt;/font&gt;" style="text;html=1;align=center;verticalAlign=middle;resizable=0;points=[];autosize=1;strokeColor=none;fillColor=none;dashed=1;strokeWidth=1;fontColor=#000000;" vertex="1" parent="232">
                    <mxGeometry x="661" y="526" width="70" height="30" as="geometry"/>
                </mxCell>
                <mxCell id="197" value="" style="endArrow=classic;html=1;fontColor=#000000;strokeColor=#000000;" edge="1" parent="232">
                    <mxGeometry width="50" height="50" relative="1" as="geometry">
                        <mxPoint x="1111" y="566" as="sourcePoint"/>
                        <mxPoint x="1111" y="606" as="targetPoint"/>
                        <Array as="points">
                            <mxPoint x="1081" y="566"/>
                            <mxPoint x="1081" y="606"/>
                        </Array>
                    </mxGeometry>
                </mxCell>
                <mxCell id="198" value="&lt;font size=&quot;1&quot;&gt;Executes critical section&lt;/font&gt;" style="text;html=1;align=center;verticalAlign=middle;resizable=0;points=[];autosize=1;strokeColor=none;fillColor=none;dashed=1;strokeWidth=1;fontColor=#000000;" vertex="1" parent="232">
                    <mxGeometry x="951" y="571" width="130" height="30" as="geometry"/>
                </mxCell>
                <mxCell id="199" value="" style="endArrow=none;html=1;endFill=0;startArrow=classic;startFill=1;exitX=0.993;exitY=0.977;exitDx=0;exitDy=0;exitPerimeter=0;fontColor=#000000;strokeColor=#000000;" edge="1" parent="232" source="209">
                    <mxGeometry width="50" height="50" relative="1" as="geometry">
                        <mxPoint x="496" y="625.5500000000002" as="sourcePoint"/>
                        <mxPoint x="1111" y="626" as="targetPoint"/>
                    </mxGeometry>
                </mxCell>
                <mxCell id="200" value="&lt;font style=&quot;font-size: 9px;&quot;&gt;Release Lock&lt;br&gt;&lt;/font&gt;" style="text;html=1;align=center;verticalAlign=middle;resizable=0;points=[];autosize=1;strokeColor=none;fillColor=none;dashed=1;strokeWidth=1;fontColor=#000000;" vertex="1" parent="232">
                    <mxGeometry x="607" y="596" width="80" height="30" as="geometry"/>
                </mxCell>
                <mxCell id="203" value="" style="endArrow=classic;html=1;fontColor=#000000;strokeColor=#000000;" edge="1" parent="232">
                    <mxGeometry width="50" height="50" relative="1" as="geometry">
                        <mxPoint x="170" y="156" as="sourcePoint"/>
                        <mxPoint x="470" y="156" as="targetPoint"/>
                    </mxGeometry>
                </mxCell>
                <mxCell id="204" value="&lt;font style=&quot;font-size: 9px;&quot;&gt;Node 2: Alive?&lt;/font&gt;" style="text;html=1;align=center;verticalAlign=middle;resizable=0;points=[];autosize=1;strokeColor=none;fillColor=none;dashed=1;strokeWidth=1;fontColor=#000000;" vertex="1" parent="232">
                    <mxGeometry x="285" y="126" width="80" height="30" as="geometry"/>
                </mxCell>
                <mxCell id="205" value="&lt;font style=&quot;font-size: 9px;&quot;&gt;Do not receive any data&lt;/font&gt;" style="text;html=1;align=center;verticalAlign=middle;resizable=0;points=[];autosize=1;strokeColor=none;fillColor=none;dashed=1;strokeWidth=1;fontColor=#000000;" vertex="1" parent="232">
                    <mxGeometry x="200" y="176" width="120" height="30" as="geometry"/>
                </mxCell>
                <mxCell id="206" value="&lt;font style=&quot;font-size: 9px;&quot;&gt;Node 2: Starts Election process ...&lt;/font&gt;" style="text;html=1;align=center;verticalAlign=middle;resizable=0;points=[];autosize=1;strokeColor=none;fillColor=none;dashed=1;strokeWidth=1;fontColor=#000000;" vertex="1" parent="232">
                    <mxGeometry x="170" y="216" width="160" height="30" as="geometry"/>
                </mxCell>
                <mxCell id="207" value="" style="endArrow=classic;html=1;fontColor=#000000;strokeColor=#000000;" edge="1" parent="232">
                    <mxGeometry width="50" height="50" relative="1" as="geometry">
                        <mxPoint x="170.5" y="276" as="sourcePoint"/>
                        <mxPoint x="470.5" y="276" as="targetPoint"/>
                    </mxGeometry>
                </mxCell>
                <mxCell id="208" value="&lt;span style=&quot;font-size: 9px;&quot;&gt;Node 2: Electing self as Leader&lt;/span&gt;" style="text;html=1;align=center;verticalAlign=middle;resizable=0;points=[];autosize=1;strokeColor=none;fillColor=none;dashed=1;strokeWidth=1;fontColor=#000000;" vertex="1" parent="232">
                    <mxGeometry x="253.5" y="246" width="150" height="30" as="geometry"/>
                </mxCell>
                <mxCell id="209" value="&lt;span style=&quot;font-family: monospace; font-size: 0px; text-align: start;&quot;&gt;%3CmxGraphModel%3E%3Croot%3E%3CmxCell%20id%3D%220%22%2F%3E%3CmxCell%20id%3D%221%22%20parent%3D%220%22%2F%3E%3CmxCell%20id%3D%222%22%20value%3D%22%22%20style%3D%22group%22%20vertex%3D%221%22%20connectable%3D%220%22%20parent%3D%221%22%3E%3CmxGeometry%20x%3D%22360%22%20y%3D%2260%22%20width%3D%22140%22%20height%3D%22990%22%20as%3D%22geometry%22%2F%3E%3C%2FmxCell%3E%3CmxCell%20id%3D%223%22%20value%3D%22Node%201%22%20style%3D%22rounded%3D1%3BwhiteSpace%3Dwrap%3Bhtml%3D1%3B%22%20vertex%3D%221%22%20parent%3D%222%22%3E%3CmxGeometry%20width%3D%22120%22%20height%3D%2260%22%20as%3D%22geometry%22%2F%3E%3C%2FmxCell%3E%3CmxCell%20id%3D%224%22%20value%3D%22%22%20style%3D%22line%3BstrokeWidth%3D1%3Bdirection%3Dsouth%3Bhtml%3D1%3Bperimeter%3DbackbonePerimeter%3Bpoints%3D%5B%5D%3BoutlineConnect%3D0%3BperimeterSpacing%3D0%3Bdashed%3D1%3B%22%20vertex%3D%221%22%20parent%3D%222%22%3E%3CmxGeometry%20x%3D%2255%22%20y%3D%2260%22%20width%3D%2210%22%20height%3D%22930%22%20as%3D%22geometry%22%2F%3E%3C%2FmxCell%3E%3CmxCell%20id%3D%225%22%20value%3D%22%22%20style%3D%22group%22%20vertex%3D%221%22%20connectable%3D%220%22%20parent%3D%222%22%3E%3CmxGeometry%20width%3D%22130%22%20height%3D%22990%22%20as%3D%22geometry%22%2F%3E%3C%2FmxCell%3E%3CmxCell%20id%3D%226%22%20value%3D%22Node%201%22%20style%3D%22rounded%3D1%3BwhiteSpace%3Dwrap%3Bhtml%3D1%3B%22%20vertex%3D%221%22%20parent%3D%225%22%3E%3CmxGeometry%20width%3D%22120%22%20height%3D%2260%22%20as%3D%22geometry%22%2F%3E%3C%2FmxCell%3E%3CmxCell%20id%3D%227%22%20value%3D%22%22%20style%3D%22line%3BstrokeWidth%3D1%3Bdirection%3Dsouth%3Bhtml%3D1%3Bperimeter%3DbackbonePerimeter%3Bpoints%3D%5B%5D%3BoutlineConnect%3D0%3BperimeterSpacing%3D0%3Bdashed%3D1%3B%22%20vertex%3D%221%22%20parent%3D%225%22%3E%3CmxGeometry%20x%3D%2255%22%20y%3D%2260%22%20width%3D%2210%22%20height%3D%22930%22%20as%3D%22geometry%22%2F%3E%3C%2FmxCell%3E%3CmxCell%20id%3D%228%22%20value%3D%22%22%20style%3D%22rounded%3D1%3BwhiteSpace%3Dwrap%3Bhtml%3D1%3BfontSize%3D9%3B%22%20vertex%3D%221%22%20parent%3D%225%22%3E%3CmxGeometry%20x%3D%2250%22%20y%3D%2280%22%20width%3D%2220%22%20height%3D%22120%22%20as%3D%22geometry%22%2F%3E%3C%2FmxCell%3E%3CmxCell%20id%3D%229%22%20value%3D%22%22%20style%3D%22rounded%3D1%3BwhiteSpace%3Dwrap%3Bhtml%3D1%3BfontSize%3D9%3B%22%20vertex%3D%221%22%20parent%3D%225%22%3E%3CmxGeometry%20x%3D%2250%22%20y%3D%22210%22%20width%3D%2220%22%20height%3D%2260%22%20as%3D%22geometry%22%2F%3E%3C%2FmxCell%3E%3C%2Froot%3E%3C%2FmxGraphModel%3E&lt;/span&gt;" style="rounded=1;whiteSpace=wrap;html=1;fontSize=9;fontColor=#000000;fillColor=#FFFFFF;strokeColor=#000000;strokeWidth=0.5;" vertex="1" parent="232">
                    <mxGeometry x="150" y="136" width="20" height="500" as="geometry"/>
                </mxCell>
                <mxCell id="210" value="" style="endArrow=classic;html=1;exitX=1.107;exitY=0.332;exitDx=0;exitDy=0;exitPerimeter=0;fontColor=#000000;strokeColor=#000000;" edge="1" parent="232">
                    <mxGeometry width="50" height="50" relative="1" as="geometry">
                        <mxPoint x="172.14" y="175.92000000000007" as="sourcePoint"/>
                        <mxPoint x="170" y="206" as="targetPoint"/>
                        <Array as="points">
                            <mxPoint x="200" y="176"/>
                            <mxPoint x="200" y="206"/>
                        </Array>
                    </mxGeometry>
                </mxCell>
                <mxCell id="211" value="" style="endArrow=classic;html=1;fontColor=#000000;strokeColor=#000000;" edge="1" parent="232">
                    <mxGeometry width="50" height="50" relative="1" as="geometry">
                        <mxPoint x="172" y="331" as="sourcePoint"/>
                        <mxPoint x="172" y="371" as="targetPoint"/>
                        <Array as="points">
                            <mxPoint x="200" y="331.1600000000001"/>
                            <mxPoint x="200" y="371"/>
                        </Array>
                    </mxGeometry>
                </mxCell>
                <mxCell id="212" value="&lt;font style=&quot;font-size: 9px;&quot;&gt;Node 2: I am Leader&lt;/font&gt;" style="text;html=1;align=center;verticalAlign=middle;resizable=0;points=[];autosize=1;strokeColor=none;fillColor=none;dashed=1;strokeWidth=1;fontColor=#000000;" vertex="1" parent="232">
                    <mxGeometry x="195" y="336" width="110" height="30" as="geometry"/>
                </mxCell>
                <mxCell id="214" value="&lt;font style=&quot;font-size: 9px;&quot;&gt;Node 1: Fails&lt;br&gt;&lt;/font&gt;" style="text;html=1;align=center;verticalAlign=middle;resizable=0;points=[];autosize=1;strokeColor=none;fillColor=none;dashed=1;strokeWidth=1;fontColor=#000000;" vertex="1" parent="232">
                    <mxGeometry x="390" y="166" width="80" height="30" as="geometry"/>
                </mxCell>
                <mxCell id="216" value="&lt;font style=&quot;font-size: 9px;&quot;&gt;After timeout&lt;/font&gt;" style="text;html=1;align=center;verticalAlign=middle;resizable=0;points=[];autosize=1;strokeColor=none;fillColor=none;dashed=1;strokeWidth=1;fontColor=#000000;" vertex="1" parent="232">
                    <mxGeometry x="170" y="286" width="70" height="30" as="geometry"/>
                </mxCell>
                <mxCell id="217" value="" style="endArrow=classic;html=1;fontColor=#000000;strokeColor=#000000;" edge="1" parent="232">
                    <mxGeometry width="50" height="50" relative="1" as="geometry">
                        <mxPoint x="170" y="396" as="sourcePoint"/>
                        <mxPoint x="790" y="396" as="targetPoint"/>
                    </mxGeometry>
                </mxCell>
                <mxCell id="218" value="&lt;span style=&quot;font-size: 9px;&quot;&gt;Notify Client 1 of new Leader&lt;/span&gt;" style="text;html=1;align=center;verticalAlign=middle;resizable=0;points=[];autosize=1;strokeColor=none;fillColor=none;dashed=1;strokeWidth=1;fontColor=#000000;" vertex="1" parent="232">
                    <mxGeometry x="258" y="366" width="140" height="30" as="geometry"/>
                </mxCell>
                <mxCell id="219" value="" style="endArrow=classic;html=1;fontColor=#000000;strokeColor=#000000;" edge="1" parent="232">
                    <mxGeometry width="50" height="50" relative="1" as="geometry">
                        <mxPoint x="170" y="435.9999999999998" as="sourcePoint"/>
                        <mxPoint x="1110" y="436" as="targetPoint"/>
                    </mxGeometry>
                </mxCell>
                <mxCell id="220" value="&lt;span style=&quot;font-size: 9px;&quot;&gt;Notify Client 2 of new Leader&lt;/span&gt;" style="text;html=1;align=center;verticalAlign=middle;resizable=0;points=[];autosize=1;strokeColor=none;fillColor=none;dashed=1;strokeWidth=1;fontColor=#000000;" vertex="1" parent="232">
                    <mxGeometry x="258" y="406" width="140" height="30" as="geometry"/>
                </mxCell>
            </root>
        </mxGraphModel>
    </diagram>
</mxfile>